<?xml version="1.0" standalone="no"?><!DOCTYPE svg PUBLIC "-//W3C//DTD SVG 1.1//EN" "http://www.w3.org/Graphics/SVG/1.1/DTD/svg11.dtd"><svg height="8792" node-id="1" sillyvg="true" template-height="8792" template-width="11799" version="1.1" viewBox="0 0 11799 8792" width="11799" xmlns="http://www.w3.org/2000/svg" xmlns:xlink="http://www.w3.org/1999/xlink"><defs node-id="130"></defs><path d="M 11798.30 7725.51 L 0.00 7725.51 L 0.00 7731.41 L 11798.30 7731.41 L 11798.30 7725.51 Z" fill="#e0e0e0" fill-rule="nonzero" node-id="132" stroke="none" target-height="5.9003906" target-width="11798.3" target-x="0" target-y="7725.51"></path><path d="M 10007.50 8056.57 L 9757.18 8056.57 L 9757.18 8062.47 L 10007.50 8062.47 L 10007.50 8056.57 Z" fill="#e0e0e0" fill-rule="nonzero" node-id="134" stroke="none" target-height="5.9003906" target-width="250.32031" target-x="9757.18" target-y="8056.57"></path><path d="M 9583.98 8059.40 L 8565.79 8059.40 L 8565.79 8065.30 L 9583.98 8065.30 L 9583.98 8059.40 Z" fill="#e0e0e0" fill-rule="nonzero" node-id="136" stroke="none" target-height="5.8999023" target-width="1018.1904" target-x="8565.79" target-y="8059.4"></path><path d="M 7307.15 8003.24 L 5588.84 8003.24 L 5588.84 8009.14 L 7307.15 8009.14 L 7307.15 8003.24 Z" fill="#e0e0e0" fill-rule="nonzero" node-id="138" stroke="none" target-height="5.8999023" target-width="1718.31" target-x="5588.84" target-y="8003.24"></path><path d="M 4600.38 8105.65 L 4055.07 8105.65 L 4055.07 8111.55 L 4600.38 8111.55 L 4600.38 8105.65 Z" fill="#e0e0e0" fill-rule="nonzero" node-id="140" stroke="none" target-height="5.8999023" target-width="545.3098" target-x="4055.07" target-y="8105.65"></path><path d="M 2783.21 8006.07 L 2032.37 8006.07 L 2032.37 8011.97 L 2783.21 8011.97 L 2783.21 8006.07 Z" fill="#e0e0e0" fill-rule="nonzero" node-id="142" stroke="none" target-height="5.9003906" target-width="750.83997" target-x="2032.37" target-y="8006.07"></path><path d="M 3615.94 8006.07 L 2914.17 8006.07 L 2914.17 8011.97 L 3615.94 8011.97 L 3615.94 8006.07 Z" fill="#e0e0e0" fill-rule="nonzero" node-id="144" stroke="none" target-height="5.9003906" target-width="701.77" target-x="2914.17" target-y="8006.07"></path><path d="M 2257.25 7902.96 L 1540.62 7902.96 L 1540.62 7908.86 L 2257.25 7908.86 L 2257.25 7902.96 Z" fill="#e0e0e0" fill-rule="nonzero" node-id="146" stroke="none" target-height="5.8999023" target-width="716.63" target-x="1540.62" target-y="7902.96"></path><path d="M 5592.38 6673.11 L 1036.12 6673.11 C 1000.43 6673.04 966.22 6658.82 941.00 6633.56 C 915.79 6608.30 901.62 6574.06 901.62 6538.37 L 901.62 133.56 C 901.93 98.07 916.24 64.13 941.42 39.13 C 966.60 14.12 1000.63 0.06 1036.12 0.00 L 5592.38 0.00 C 5628.12 0.00 5662.39 14.20 5687.66 39.46 C 5712.92 64.73 5727.12 99.00 5727.12 134.74 L 5727.12 6538.37 C 5727.12 6574.10 5712.92 6608.38 5687.66 6633.64 C 5662.39 6658.91 5628.12 6673.11 5592.38 6673.11 Z M 1036.12 4.72 C 1002.00 4.78 969.29 18.38 945.17 42.54 C 921.07 66.69 907.52 99.43 907.52 133.56 L 907.52 6538.37 C 907.52 6572.50 921.07 6605.23 945.17 6629.39 C 969.29 6653.54 1002.00 6667.14 1036.12 6667.21 L 5592.38 6667.21 C 5626.53 6667.14 5659.27 6653.55 5683.42 6629.40 C 5707.56 6605.25 5721.16 6572.52 5721.22 6538.37 L 5721.22 133.56 C 5721.16 99.41 5707.56 66.67 5683.42 42.52 C 5659.27 18.38 5626.53 4.78 5592.38 4.72 L 1036.12 4.72 Z" fill="#e0e0e0" fill-rule="nonzero" node-id="148" stroke="none" target-height="6673.11" target-width="4825.496" target-x="901.624" target-y="0"></path><path d="M 10696.60 6673.11 L 6140.06 6673.11 C 6104.34 6673.04 6070.11 6658.83 6044.86 6633.57 C 6019.60 6608.32 6005.39 6574.09 6005.32 6538.37 L 6005.32 133.56 C 6005.70 98.05 6020.05 64.11 6045.27 39.11 C 6070.49 14.11 6104.55 0.06 6140.06 0.00 L 10696.60 0.00 C 10732.00 0.12 10766.00 14.21 10791.10 39.21 C 10816.20 64.21 10830.50 98.11 10830.80 133.56 L 10830.80 6538.37 C 10830.80 6574.02 10816.70 6608.22 10791.50 6633.48 C 10766.40 6658.73 10732.20 6672.98 10696.60 6673.11 Z M 6140.06 4.72 C 6105.91 4.78 6073.17 18.38 6049.03 42.52 C 6024.88 66.67 6011.28 99.41 6011.22 133.56 L 6011.22 6538.37 C 6011.28 6572.52 6024.88 6605.25 6049.03 6629.40 C 6073.17 6653.55 6105.91 6667.14 6140.06 6667.21 L 10696.60 6667.21 C 10730.70 6667.14 10763.40 6653.55 10787.60 6629.40 C 10811.70 6605.25 10825.30 6572.52 10825.40 6538.37 L 10825.40 133.56 C 10825.30 99.41 10811.70 66.67 10787.60 42.52 C 10763.40 18.38 10730.70 4.78 10696.60 4.72 L 6140.06 4.72 Z" fill="#e0e0e0" fill-rule="nonzero" node-id="150" stroke="none" target-height="6673.11" target-width="4825.48" target-x="6005.32" target-y="0"></path><path d="M 4207.97 5418.00 C 4220.95 5418.00 4233.93 5418.00 4247.14 5419.18 C 4329.36 5424.99 4409.28 5448.91 4481.17 5489.24 C 4553.05 5529.57 4615.13 5585.30 4662.94 5652.44 C 4710.75 5719.58 4743.12 5796.46 4757.72 5877.59 C 4772.32 5958.71 4768.79 6042.06 4747.39 6121.65 C 4686.43 6359.34 4657.00 6604.01 4659.85 6849.37 L 4659.85 7563.87 C 4659.85 7588.91 4649.90 7612.92 4632.20 7630.62 C 4614.50 7648.32 4590.49 7658.26 4565.46 7658.26 L 2298.07 7658.26 L 2298.07 5418.00 L 4207.97 5418.00 Z" fill="#e6e6e6" fill-rule="nonzero" node-id="152" stroke="none" target-height="2240.2598" target-width="2474.2498" target-x="2298.07" target-y="5418"></path><path d="M 1739.54 5976.53 C 1739.61 5897.04 1756.65 5818.47 1789.52 5746.09 C 1822.39 5673.71 1870.33 5609.17 1930.14 5556.81 C 1989.95 5504.44 2060.25 5465.44 2136.34 5442.42 C 2212.43 5419.40 2292.56 5412.89 2371.37 5423.33 C 2450.18 5433.76 2525.85 5460.90 2593.33 5502.92 C 2660.81 5544.95 2718.55 5600.90 2762.67 5667.02 C 2806.79 5733.15 2836.29 5807.93 2849.19 5886.38 C 2862.10 5964.82 2858.10 6045.11 2837.49 6121.89 C 2776.53 6359.57 2747.09 6604.25 2749.94 6849.61 L 2749.94 7564.11 C 2749.94 7589.14 2740.00 7613.15 2722.30 7630.85 C 2704.60 7648.55 2680.59 7658.50 2655.56 7658.50 L 1940.11 7658.50 C 1915.08 7658.50 1891.07 7648.55 1873.37 7630.85 C 1855.67 7613.15 1845.72 7589.14 1845.72 7564.11 L 1845.72 6807.60 C 1847.79 6577.52 1818.74 6348.20 1759.36 6125.90 C 1746.03 6077.24 1739.36 6026.99 1739.54 5976.53 Z" fill="#f0f0f0" fill-rule="nonzero" node-id="154" stroke="none" target-height="2245.6099" target-width="1122.7401" target-x="1739.36" target-y="5412.89"></path><path d="M 3067.79 7657.79 L 5935.48 7657.79 L 5935.48 6297.92 L 3067.79 6297.92 L 3067.79 7657.79 Z" fill="#e6e6e6" fill-rule="nonzero" node-id="156" stroke="none" target-height="1359.8701" target-width="2867.69" target-x="3067.79" target-y="6297.92"></path><path d="M 7617.91 6605.38 L 4061.20 6605.38 L 4061.20 5091.90 C 4061.20 4979.75 4105.75 4872.20 4185.05 4792.90 C 4264.35 4713.60 4371.91 4669.05 4484.05 4669.05 L 7195.77 4669.05 C 7307.79 4669.24 7415.17 4713.87 7494.31 4793.15 C 7573.46 4872.43 7617.91 4979.88 7617.91 5091.90 L 7617.91 6605.38 Z" fill="#e0e0e0" fill-rule="nonzero" node-id="158" stroke="none" target-height="1936.3301" target-width="3556.7102" target-x="4061.2" target-y="4669.05"></path><path d="M 7085.57 6605.38 L 3529.10 6605.38 L 3529.10 5071.61 C 3529.10 4964.90 3571.49 4862.57 3646.94 4787.12 C 3722.39 4711.67 3824.72 4669.29 3931.42 4669.29 L 6683.25 4669.29 C 6789.95 4669.29 6892.29 4711.67 6967.74 4787.12 C 7043.19 4862.57 7085.57 4964.90 7085.57 5071.61 L 7085.57 6605.38 Z" fill="#f0f0f0" fill-rule="nonzero" node-id="160" stroke="none" target-height="1936.0898" target-width="3556.4697" target-x="3529.1" target-y="4669.29"></path><path d="M 5802.16 6727.38 L 3093.98 6727.38 C 3061.44 6727.38 3030.23 6714.45 3007.22 6691.44 C 2984.21 6668.43 2971.28 6637.22 2971.28 6604.68 L 2971.28 6296.27 C 2971.28 6263.73 2984.21 6232.52 3007.22 6209.51 C 3030.23 6186.50 3061.44 6173.57 3093.98 6173.57 L 5802.16 6173.57 C 5811.86 6173.57 5821.16 6177.42 5828.02 6184.28 C 5834.88 6191.14 5838.73 6200.44 5838.73 6210.14 L 5838.73 6690.80 C 5838.73 6700.50 5834.88 6709.81 5828.02 6716.67 C 5821.16 6723.53 5811.86 6727.38 5802.16 6727.38 Z" fill="#e0e0e0" fill-rule="nonzero" node-id="162" stroke="none" target-height="553.81006" target-width="2867.45" target-x="2971.28" target-y="6173.57"></path><path d="M 7818.48 5418.00 C 7831.46 5418.00 7844.67 5418.00 7857.89 5419.18 C 7940.11 5424.99 8020.03 5448.91 8091.91 5489.24 C 8163.80 5529.57 8225.87 5585.30 8273.69 5652.44 C 8321.50 5719.58 8353.87 5796.46 8368.47 5877.59 C 8383.07 5958.71 8379.54 6042.06 8358.14 6121.65 C 8296.98 6359.31 8267.47 6603.99 8270.36 6849.37 L 8270.36 7563.87 C 8270.36 7588.91 8260.41 7612.92 8242.71 7630.62 C 8225.01 7648.32 8201.00 7658.26 8175.97 7658.26 L 5908.81 7658.26 L 5908.81 5418.00 L 7818.48 5418.00 Z" fill="#e6e6e6" fill-rule="nonzero" node-id="164" stroke="none" target-height="2240.2598" target-width="2474.2603" target-x="5908.81" target-y="5418"></path><path d="M 5350.05 5976.54 C 5350.89 5832.06 5407.67 5693.53 5508.46 5590.01 C 5609.25 5486.50 5746.22 5426.04 5890.62 5421.34 C 6035.02 5416.64 6175.63 5468.06 6282.94 5564.80 C 6390.25 5661.54 6455.92 5796.08 6466.16 5940.20 C 6470.09 6001.33 6464.03 6062.70 6448.23 6121.89 C 6387.27 6359.58 6357.84 6604.25 6360.69 6849.61 L 6360.69 7564.11 C 6360.69 7589.14 6350.74 7613.15 6333.04 7630.85 C 6315.34 7648.55 6291.33 7658.50 6266.30 7658.50 L 5550.62 7658.50 C 5525.58 7658.50 5501.58 7648.55 5483.88 7630.85 C 5466.18 7613.15 5456.23 7589.14 5456.23 7564.11 L 5456.23 6807.61 C 5458.33 6577.50 5429.20 6348.17 5369.63 6125.90 C 5356.38 6077.23 5349.79 6026.98 5350.05 5976.54 Z" fill="#f0f0f0" fill-rule="nonzero" node-id="166" stroke="none" target-height="2241.8599" target-width="1120.2998" target-x="5349.79" target-y="5416.64"></path><path d="M 2337.95 7725.75 L 7778.60 7725.75 C 7787.55 7725.78 7796.41 7724.04 7804.68 7720.64 C 7812.96 7717.24 7820.47 7712.24 7826.81 7705.93 C 7833.15 7699.61 7838.17 7692.11 7841.60 7683.85 C 7845.03 7675.59 7846.80 7666.73 7846.80 7657.79 L 2269.99 7657.79 C 2269.99 7675.81 2277.15 7693.10 2289.89 7705.84 C 2302.64 7718.59 2319.92 7725.75 2337.95 7725.75 Z" fill="#e0e0e0" fill-rule="nonzero" node-id="168" stroke="none" target-height="67.989746" target-width="5576.8096" target-x="2269.99" target-y="7657.79"></path><path d="M 9735.70 7629.24 L 10225.10 7629.24 L 10225.10 5071.14 L 9735.70 5071.14 L 9735.70 7629.24 Z" fill="#e6e6e6" fill-rule="nonzero" node-id="170" stroke="none" target-height="2558.1" target-width="489.3994" target-x="9735.7" target-y="5071.14"></path><path d="M 7998.05 7725.51 L 10131.20 7725.51 L 10131.20 7629.47 L 7998.05 7629.47 L 7998.05 7725.51 Z" fill="#e6e6e6" fill-rule="nonzero" node-id="172" stroke="none" target-height="96.03955" target-width="2133.1504" target-x="7998.05" target-y="7629.47"></path><path d="M 9735.70 5071.14 L 7904.14 5071.14 L 7904.14 7629.24 L 9735.70 7629.24 L 9735.70 5071.14 Z" fill="#f0f0f0" fill-rule="nonzero" node-id="174" stroke="none" target-height="2558.1" target-width="1831.56" target-x="7904.14" target-y="5071.14"></path><path d="M 9666.33 5155.38 L 7973.51 5155.38 L 7973.51 6783.06 L 9666.33 6783.06 L 9666.33 5155.38 Z" fill="#e6e6e6" fill-rule="nonzero" node-id="176" stroke="none" target-height="1627.6802" target-width="1692.8203" target-x="7973.51" target-y="5155.38"></path><path d="M 9666.33 6852.20 L 7973.51 6852.20 L 7973.51 7438.81 L 9666.33 7438.81 L 9666.33 6852.20 Z" fill="#e6e6e6" fill-rule="nonzero" node-id="178" stroke="none" target-height="586.60986" target-width="1692.8203" target-x="7973.51" target-y="6852.2"></path><path d="M 8330.53 5155.38 L 7973.51 5155.38 L 7973.51 6783.06 L 8330.53 6783.06 L 8330.53 5155.38 Z" fill="#e0e0e0" fill-rule="nonzero" node-id="180" stroke="none" target-height="1627.6802" target-width="357.0205" target-x="7973.51" target-y="5155.38"></path><path d="M 8330.53 6852.20 L 7973.51 6852.20 L 7973.51 7438.81 L 8330.53 7438.81 L 8330.53 6852.20 Z" fill="#e0e0e0" fill-rule="nonzero" node-id="182" stroke="none" target-height="586.60986" target-width="357.0205" target-x="7973.51" target-y="6852.2"></path><path d="M 4043.27 3875.26 L 8286.87 3875.26 L 8286.87 796.86 L 4043.27 796.86 L 4043.27 3875.26 Z" fill="#e0e0e0" fill-rule="nonzero" node-id="184" stroke="none" target-height="3078.405" target-width="4243.6" target-x="4043.27" target-y="796.855"></path><path d="M 3739.35 3875.26 L 8209.24 3875.26 L 8209.24 796.86 L 3739.35 796.86 L 3739.35 3875.26 Z" fill="#f0f0f0" fill-rule="nonzero" node-id="186" stroke="none" target-height="3078.405" target-width="4469.89" target-x="3739.35" target-y="796.855"></path><path d="M 8114.62 3780.41 L 8114.62 891.72 L 3834.44 891.72 L 3834.44 3780.41 L 8114.62 3780.41 Z" fill="#fafafa" fill-rule="nonzero" node-id="188" stroke="none" target-height="2888.6948" target-width="4280.18" target-x="3834.44" target-y="891.715"></path><path d="M 6160.01 2357.91 C 6226.64 1943.34 5944.57 1553.25 5530.00 1486.62 C 5115.43 1420.00 4725.34 1702.06 4658.71 2116.64 C 4592.09 2531.21 4874.15 2921.30 5288.72 2987.92 C 5703.30 3054.55 6093.38 2772.48 6160.01 2357.91 Z" fill="#e0e0e0" fill-rule="nonzero" node-id="190" stroke="none" target-height="1634.55" target-width="1634.5503" target-x="4592.09" target-y="1420"></path><path d="M 4157.95 3114.74 C 4227.09 3027.44 4365.83 2960.19 4468.48 2964.43 C 4483.62 2963.89 4498.73 2966.36 4512.90 2971.71 C 4527.08 2977.06 4540.06 2985.17 4551.07 2995.58 C 4738.42 2887.04 4954.10 2820.50 5132.25 2827.81 C 5222.86 2831.35 5293.18 2853.77 5341.79 2890.34 C 5543.07 2726.58 5799.56 2610.25 5985.74 2610.25 C 6091.45 2610.25 6157.05 2648.00 6180.41 2710.54 C 6386.88 2600.58 6599.01 2533.09 6770.32 2533.09 C 7043.10 2533.09 7131.59 2704.64 7019.98 2945.79 C 7064.81 2991.33 7279.54 3054.81 7271.04 3130.79 L 4146.15 3130.79 C 4149.93 3124.89 4152.99 3119.46 4157.95 3114.74 Z" fill="#f0f0f0" fill-rule="nonzero" node-id="192" stroke="none" target-height="597.69995" target-width="3133.3901" target-x="4146.15" target-y="2533.09"></path><path d="M 5233.72 2007.12 C 5246.40 2006.61 5259.03 2009.22 5270.47 2014.73 C 5281.91 2020.25 5291.81 2028.49 5299.31 2038.74 C 5458.35 1928.54 5637.69 1860.82 5782.10 1868.37 C 5843.79 1868.13 5903.39 1890.75 5949.40 1931.85 C 6122.13 1766.67 6337.80 1648.69 6489.29 1648.69 C 6575.65 1648.69 6627.09 1686.92 6642.43 1750.39 C 6816.81 1638.78 6993.31 1570.11 7133.00 1570.11 C 7305.73 1570.11 7382.18 1675.59 7358.35 1837.46 C 7441.65 1790.27 7523.53 1762.66 7590.07 1762.66 C 7682.33 1762.66 7725.75 1815.75 7718.20 1899.29 C 7726.22 1899.29 7734.24 1899.29 7741.79 1900.46 C 7883.37 1914.39 7936.70 2022.22 7868.98 2145.63 L 4982.65 2145.63 C 5045.89 2063.75 5154.67 2003.11 5233.72 2007.12 Z" fill="#f0f0f0" fill-rule="nonzero" node-id="194" stroke="none" target-height="575.5199" target-width="2954.0503" target-x="4982.65" target-y="1570.11"></path><path d="M 2899.54 2034.62 C 2963.05 1619.56 2678.07 1231.60 2263.01 1168.09 C 1847.95 1104.58 1459.98 1389.56 1396.47 1804.62 C 1332.96 2219.68 1617.94 2607.64 2033.00 2671.16 C 2448.06 2734.67 2836.02 2449.68 2899.54 2034.62 Z" fill="#e0e0e0" fill-rule="nonzero" node-id="196" stroke="none" target-height="1630.09" target-width="1630.0901" target-x="1332.96" target-y="1104.58"></path><path d="M 2855.03 2040.57 C 2921.65 1626.00 2639.59 1235.91 2225.02 1169.29 C 1810.45 1102.66 1420.36 1384.72 1353.73 1799.30 C 1287.10 2213.87 1569.17 2603.96 1983.74 2670.58 C 2398.31 2737.21 2788.40 2455.14 2855.03 2040.57 Z" fill="#f0f0f0" fill-rule="nonzero" node-id="198" stroke="none" target-height="1634.5499" target-width="1634.5499" target-x="1287.1" target-y="1102.66"></path><path d="M 2769.06 1919.34 C 2769.29 2076.67 2713.80 2229.00 2612.42 2349.30 C 2511.04 2469.61 2370.32 2550.12 2215.23 2576.55 C 2060.14 2602.98 1900.70 2573.62 1765.19 2493.69 C 1629.68 2413.76 1526.87 2288.41 1474.98 2139.88 C 1423.09 1991.36 1425.49 1829.26 1481.75 1682.33 C 1538.00 1535.41 1644.48 1413.15 1782.29 1337.26 C 1920.10 1261.37 2080.34 1236.74 2234.58 1267.75 C 2388.83 1298.75 2527.10 1383.39 2624.88 1506.64 L 2626.77 1508.76 C 2719.13 1625.67 2769.28 1770.36 2769.06 1919.34 Z" fill="#e0e0e0" fill-rule="nonzero" node-id="200" stroke="none" target-height="1366.24" target-width="1346.2001" target-x="1423.09" target-y="1236.74"></path><path d="M 2769.06 1919.35 C 2768.86 2053.38 2728.17 2184.23 2652.31 2294.73 C 2576.45 2405.23 2468.97 2490.23 2343.95 2538.58 C 2218.94 2586.92 2082.24 2596.36 1951.77 2565.66 C 1821.30 2534.95 1703.15 2465.53 1612.82 2366.50 C 1506.28 2231.34 1456.31 2060.12 1473.43 1888.86 C 1490.55 1717.61 1573.43 1559.67 1704.63 1448.28 C 1835.83 1336.88 2005.13 1280.72 2176.89 1291.61 C 2348.65 1302.49 2509.50 1379.58 2625.59 1506.64 L 2627.48 1508.77 C 2719.59 1625.76 2769.48 1770.44 2769.06 1919.35 Z" fill="#fafafa" fill-rule="nonzero" node-id="202" stroke="none" target-height="1315.6401" target-width="1313.1699" target-x="1456.31" target-y="1280.72"></path><path d="M 2118.73 1983.76 C 2109.85 1983.67 2101.18 1981.08 2093.71 1976.28 C 2086.24 1971.48 2080.27 1964.67 2076.50 1956.63 L 1907.07 1595.13 C 1904.30 1589.50 1902.68 1583.38 1902.30 1577.12 C 1901.92 1570.86 1902.80 1564.59 1904.87 1558.67 C 1906.94 1552.75 1910.18 1547.30 1914.38 1542.65 C 1918.58 1537.99 1923.67 1534.22 1929.35 1531.55 C 1935.02 1528.89 1941.18 1527.38 1947.44 1527.12 C 1953.71 1526.86 1959.96 1527.85 1965.84 1530.03 C 1971.72 1532.22 1977.11 1535.55 1981.68 1539.84 C 1986.26 1544.13 1989.93 1549.29 1992.49 1555.01 L 2142.57 1875.93 L 2359.42 1788.15 C 2371.03 1783.45 2384.03 1783.56 2395.55 1788.45 C 2407.08 1793.34 2416.19 1802.61 2420.89 1814.22 C 2425.58 1825.83 2425.47 1838.83 2420.58 1850.36 C 2415.69 1861.88 2406.42 1871.00 2394.81 1875.69 L 2136.43 1980.22 C 2130.82 1982.53 2124.81 1983.73 2118.73 1983.76 Z" fill="#e0e0e0" fill-rule="nonzero" node-id="204" stroke="none" target-height="456.90002" target-width="523.66003" target-x="1901.92" target-y="1526.86"></path><path d="M 8788.77 6169.32 C 8964.80 6192.92 9073.82 5810.65 8684.95 5486.44 C 8707.13 5861.86 8481.54 6126.85 8788.77 6169.32 Z" fill="#f0f0f0" fill-rule="nonzero" node-id="206" stroke="none" target-height="706.48" target-width="592.2803" target-x="8481.54" target-y="5486.44"></path><path d="M 8899.68 6411.19 C 9155.23 6232.09 8980.38 5606.54 8189.89 5651.85 C 8531.81 6111.51 8454.41 6723.37 8899.68 6411.19 Z" fill="#f0f0f0" fill-rule="nonzero" node-id="208" stroke="none" target-height="1116.8301" target-width="965.34033" target-x="8189.89" target-y="5606.54"></path><path d="M 8809.54 6406.94 C 8639.88 6224.06 8881.51 5763.93 9492.19 5931.94 C 9147.44 6234.92 9105.67 6725.02 8809.54 6406.94 Z" fill="#f0f0f0" fill-rule="nonzero" node-id="210" stroke="none" target-height="961.08984" target-width="852.31055" target-x="8639.88" target-y="5763.93"></path><path d="M 8546.67 6783.07 L 9071.70 6783.07 L 9111.34 6434.07 L 8507.03 6434.07 L 8546.67 6783.07 Z" fill="#e0e0e0" fill-rule="nonzero" node-id="212" stroke="none" target-height="349" target-width="604.3096" target-x="8507.03" target-y="6434.07"></path><path d="M 8468.10 6496.37 L 9150.51 6496.37 L 9150.51 6419.44 L 8468.10 6419.44 L 8468.10 6496.37 Z" fill="#e0e0e0" fill-rule="nonzero" node-id="214" stroke="none" target-height="76.930176" target-width="682.41016" target-x="8468.1" target-y="6419.44"></path><path d="M 5899.14 8791.13 C 8425.92 8791.13 10474.30 8671.54 10474.30 8524.02 C 10474.30 8376.50 8425.92 8256.91 5899.14 8256.91 C 3372.36 8256.91 1324.00 8376.50 1324.00 8524.02 C 1324.00 8671.54 3372.36 8791.13 5899.14 8791.13 Z" fill="#f5f5f5" fill-rule="nonzero" node-id="216" stroke="none" target-height="534.2197" target-width="9150.3" target-x="1324" target-y="8256.91"></path><path d="M 9146.53 7854.25 L 8978.00 7919.49 L 9123.17 8294.53 L 9291.71 8229.29 L 9146.53 7854.25 Z" fill="#e4897b" fill-rule="nonzero" node-id="218" stroke="none" target-height="440.28027" target-width="313.70996" target-x="8978" target-y="7854.25"></path><path d="M 9899.93 8342.57 L 9722.25 8342.57 L 9656.89 7931.28 L 9834.57 7931.28 L 9899.93 8342.57 Z" fill="#e4897b" fill-rule="nonzero" node-id="220" stroke="none" target-height="411.29053" target-width="243.04004" target-x="9656.89" target-y="7931.28"></path><path d="M 9710.69 8322.04 L 9910.55 8322.04 C 9913.99 8321.99 9917.34 8323.18 9919.98 8325.39 C 9922.62 8327.59 9924.38 8330.68 9924.95 8334.07 L 9950.90 8492.17 C 9951.45 8496.12 9951.13 8500.14 9949.98 8503.95 C 9948.82 8507.77 9946.85 8511.29 9944.21 8514.27 C 9941.56 8517.25 9938.30 8519.63 9934.65 8521.23 C 9931.00 8522.83 9927.04 8523.62 9923.06 8523.55 C 9853.45 8522.37 9819.71 8518.36 9731.93 8518.36 C 9677.89 8518.36 9514.84 8524.02 9440.27 8524.02 C 9365.71 8524.02 9360.28 8450.17 9391.19 8443.56 C 9529.70 8413.59 9635.42 8372.77 9681.43 8332.89 C 9689.67 8326.06 9699.99 8322.23 9710.69 8322.04 Z" fill="#263238" fill-rule="nonzero" node-id="222" stroke="none" target-height="202.0293" target-width="591.1699" target-x="9360.28" target-y="8321.99"></path><path d="M 9119.36 8258.80 L 9308.13 8203.82 C 9311.44 8202.72 9315.02 8202.85 9318.24 8204.20 C 9321.45 8205.54 9324.06 8208.01 9325.59 8211.13 L 9396.38 8352.71 C 9398.07 8356.30 9398.94 8360.21 9398.94 8364.18 C 9398.94 8368.14 9398.06 8372.05 9396.37 8375.64 C 9394.68 8379.22 9392.22 8382.39 9389.16 8384.91 C 9386.10 8387.43 9382.53 8389.25 9378.69 8390.23 C 9310.26 8408.87 9264.01 8420.67 9178.35 8445.68 C 9118.89 8462.91 9058.72 8490.99 8999.96 8509.63 C 8959.61 8522.61 8864.28 8523.08 8814.96 8523.08 C 8742.05 8523.08 8725.77 8446.15 8756.92 8442.61 C 8835.97 8433.65 8846.82 8437.89 8890.47 8415.95 C 8961.78 8384.63 9026.42 8339.94 9080.90 8284.28 C 9091.30 8272.60 9104.55 8263.82 9119.36 8258.80 Z" fill="#263238" fill-rule="nonzero" node-id="224" stroke="none" target-height="320.36035" target-width="673.1709" target-x="8725.77" target-y="8202.72"></path><path d="M 8855.79 2590.20 C 8841.16 2627.24 8827.24 2659.57 8811.43 2693.55 C 8795.62 2727.53 8779.81 2760.09 8763.05 2792.89 C 8729.16 2859.43 8691.58 2924.03 8650.50 2986.38 C 8607.64 3052.79 8557.97 3114.56 8502.31 3170.67 C 8470.68 3202.68 8435.35 3230.80 8397.07 3254.44 C 8349.04 3284.32 8294.08 3301.23 8237.56 3303.52 C 8221.76 3303.94 8205.95 3302.83 8190.36 3300.22 C 8176.73 3298.00 8163.26 3294.92 8150.01 3291.02 C 8127.51 3284.16 8105.58 3275.56 8084.42 3265.30 C 8048.15 3247.10 8013.22 3226.36 7979.88 3203.24 C 7918.70 3160.70 7860.37 3114.19 7805.27 3064.02 C 7698.27 2967.15 7598.43 2862.66 7506.54 2751.36 L 7598.09 2659.34 C 7706.40 2744.76 7817.54 2830.17 7928.44 2908.04 C 7982.47 2946.38 8038.38 2981.97 8095.98 3014.70 C 8121.97 3029.51 8149.02 3042.36 8176.91 3053.16 C 8192.20 3060.83 8209.13 3064.64 8226.23 3064.25 C 8239.74 3060.25 8252.38 3053.77 8263.51 3045.14 C 8283.93 3030.03 8302.75 3012.87 8319.67 2993.93 C 8360.28 2947.43 8396.61 2897.36 8428.22 2844.33 C 8462.20 2789.12 8494.05 2730.83 8524.26 2671.37 C 8539.36 2641.64 8553.99 2611.43 8568.14 2581.23 C 8582.30 2551.03 8596.70 2519.17 8608.73 2491.33 L 8855.79 2590.20 Z" fill="#e4897b" fill-rule="nonzero" node-id="226" stroke="none" target-height="812.60986" target-width="1349.25" target-x="7506.54" target-y="2491.33"></path><path d="M 7623.34 2716.20 L 7598.09 2576.27 L 7418.05 2686.71 C 7418.05 2686.71 7474.92 2774.96 7534.85 2776.37 L 7623.34 2716.20 Z" fill="#e4897b" fill-rule="nonzero" node-id="228" stroke="none" target-height="200.1001" target-width="205.29004" target-x="7418.05" target-y="2576.27"></path><path d="M 7514.09 2492.04 L 7373.45 2587.60 L 7417.81 2686.71 L 7597.85 2576.27 L 7514.09 2492.04 Z" fill="#e4897b" fill-rule="nonzero" node-id="230" stroke="none" target-height="194.66992" target-width="224.3999" target-x="7373.45" target-y="2492.04"></path><path d="M 8938.37 2409.45 C 8981.79 2570.85 8745.35 2895.06 8745.35 2895.06 L 8434.82 2720.92 C 8434.82 2720.92 8492.64 2587.60 8563.66 2451.92 C 8678.10 2232.71 8888.59 2225.39 8938.37 2409.45 Z" fill="#429cfd" fill-rule="nonzero" node-id="232" stroke="none" target-height="669.67017" target-width="546.9697" target-x="8434.82" target-y="2225.39"></path><g node-id="455"><path d="M 8938.37 2409.45 C 8981.79 2570.85 8745.35 2895.06 8745.35 2895.06 L 8434.82 2720.92 C 8434.82 2720.92 8492.64 2587.60 8563.66 2451.92 C 8678.10 2232.71 8888.59 2225.39 8938.37 2409.45 Z" fill="#fafafa" fill-opacity="0.6" fill-rule="nonzero" group-id="1" node-id="236" stroke="none" target-height="669.67017" target-width="546.9697" target-x="8434.82" target-y="2225.39"></path></g><path d="M 8558.71 2790.06 L 8680.70 2858.49 L 8701.94 2484.25 C 8631.15 2538.75 8580.89 2702.99 8558.71 2790.06 Z" fill="#429cfd" fill-rule="nonzero" node-id="239" stroke="none" target-height="374.24" target-width="143.23047" target-x="8558.71" target-y="2484.25"></path><path d="M 8558.71 2790.06 L 8680.70 2858.49 L 8701.94 2484.25 C 8631.15 2538.75 8580.89 2702.99 8558.71 2790.06 Z" fill="#fafafa" fill-opacity="0.3" fill-rule="nonzero" group-id="2" node-id="243" stroke="none" target-height="374.24" target-width="143.23047" target-x="8558.71" target-y="2484.25"></path><path d="M 9171.69 7886.17 L 9002.63 7951.44 L 9077.51 8145.38 L 9246.57 8080.11 L 9171.69 7886.17 Z" fill="#ce6f64" fill-rule="nonzero" node-id="246" stroke="none" target-height="259.20996" target-width="243.94043" target-x="9002.63" target-y="7886.17"></path><path d="M 9834.81 7931.28 L 9656.89 7931.28 L 9690.63 8143.41 L 9868.31 8143.41 L 9834.81 7931.28 Z" fill="#ce6f64" fill-rule="nonzero" node-id="248" stroke="none" target-height="212.13037" target-width="211.41992" target-x="9656.89" target-y="7931.28"></path><path d="M 9730.27 2278.72 C 9549.29 2966.09 9599.31 3677.76 9584.21 3823.59 L 8633.98 3823.59 C 8492.40 2824.51 8734.50 2287.92 8734.50 2287.92 C 8734.50 2287.92 8810.01 2267.63 8907.23 2251.82 L 8934.36 2247.81 C 8959.14 2244.27 8984.62 2240.97 9010.58 2238.61 C 9145.12 2230.81 9280.01 2230.81 9414.55 2238.61 C 9435.55 2238.61 9456.79 2241.20 9477.56 2242.85 L 9502.33 2245.21 C 9624.80 2257.25 9730.27 2278.72 9730.27 2278.72 Z" fill="#429cfd" fill-rule="nonzero" node-id="250" stroke="none" target-height="1592.78" target-width="1237.8691" target-x="8492.4" target-y="2230.81"></path><path d="M 9730.27 2278.72 C 9549.29 2966.09 9599.31 3677.76 9584.21 3823.59 L 8633.98 3823.59 C 8492.40 2824.51 8734.50 2287.92 8734.50 2287.92 C 8734.50 2287.92 8810.01 2267.63 8907.23 2251.82 L 8934.36 2247.81 C 8959.14 2244.27 8984.62 2240.97 9010.58 2238.61 C 9145.12 2230.81 9280.01 2230.81 9414.55 2238.61 C 9435.55 2238.61 9456.79 2241.20 9477.56 2242.85 L 9502.33 2245.21 C 9624.80 2257.25 9730.27 2278.72 9730.27 2278.72 Z" fill="#fafafa" fill-opacity="0.6" fill-rule="nonzero" group-id="3" node-id="254" stroke="none" target-height="1592.78" target-width="1237.8691" target-x="8492.4" target-y="2230.81"></path><path d="M 8603.78 3553.17 C 8607.08 3595.80 8611.25 3639.53 8616.28 3684.37 L 9324.18 3455.01 C 9434.53 3422.10 9530.40 3352.62 9596.01 3257.98 C 9598.61 3194.98 9602.15 3128.67 9607.57 3059.53 C 9609.93 3025.79 9613.00 2991.34 9616.07 2956.41 C 9619.14 2921.49 9623.38 2883.03 9627.63 2845.75 L 8603.78 3553.17 Z" fill="#429cfd" fill-rule="nonzero" node-id="257" stroke="none" target-height="838.6201" target-width="1023.8496" target-x="8603.78" target-y="2845.75"></path><path d="M 8603.78 3553.17 C 8607.08 3595.80 8611.25 3639.53 8616.28 3684.37 L 9324.18 3455.01 C 9434.53 3422.10 9530.40 3352.62 9596.01 3257.98 C 9598.61 3194.98 9602.15 3128.67 9607.57 3059.53 C 9609.93 3025.79 9613.00 2991.34 9616.07 2956.41 C 9619.14 2921.49 9623.38 2883.03 9627.63 2845.75 L 8603.78 3553.17 Z" fill="#fafafa" fill-opacity="0.3" fill-rule="nonzero" group-id="4" node-id="261" stroke="none" target-height="838.6201" target-width="1023.8496" target-x="8603.78" target-y="2845.75"></path><path d="M 9477.56 2242.86 L 9468.12 2263.15 C 9465.05 2269.99 9389.78 2429.50 9112.99 2429.50 C 9076.18 2429.50 8964.09 2429.50 8928.94 2351.16 C 8922.21 2334.59 8919.21 2316.74 8920.15 2298.88 C 8921.08 2281.02 8925.94 2263.59 8934.36 2247.81 L 8907.23 2251.82 C 8899.91 2269.06 8896.13 2287.60 8896.13 2306.33 C 8896.13 2325.06 8899.91 2343.60 8907.23 2360.84 C 8948.52 2453.10 9072.40 2453.10 9112.75 2453.10 C 9404.41 2453.10 9486.05 2280.14 9490.30 2272.82 L 9502.80 2245.21 L 9477.56 2242.86 Z" fill="#fafafa" fill-rule="nonzero" node-id="264" stroke="none" target-height="210.23999" target-width="606.6699" target-x="8896.13" target-y="2242.86"></path><path d="M 9401.10 1783.66 C 9368.07 1913.68 9328.66 2151.77 9414.55 2238.61 C 9414.55 2238.61 9354.62 2370.51 9112.99 2370.51 C 8892.36 2370.51 9010.58 2238.61 9010.58 2238.61 C 9157.59 2203.92 9160.18 2097.03 9140.83 1995.56 L 9401.10 1783.66 Z" fill="#e4897b" fill-rule="nonzero" node-id="266" stroke="none" target-height="586.85" target-width="522.18945" target-x="8892.36" target-y="1783.66"></path><path d="M 9294.92 1870.03 L 9140.83 1995.32 C 9145.72 2018.62 9148.49 2042.32 9149.09 2066.11 C 9194.16 2110.95 9284.54 1997.45 9293.97 1939.40 C 9298.43 1916.52 9298.75 1893.02 9294.92 1870.03 Z" fill="#ce6f64" fill-rule="nonzero" node-id="268" stroke="none" target-height="240.91992" target-width="157.91992" target-x="9140.83" target-y="1870.03"></path><path d="M 8863.10 1720.66 C 8866.85 1741.74 8874.94 1761.80 8886.84 1779.59 C 8898.74 1797.38 8914.20 1812.51 8932.24 1824.02 C 8981.32 1855.16 9026.63 1815.76 9028.75 1761.01 C 9031.58 1711.93 9009.40 1636.42 8952.06 1627.46 C 8939.57 1625.59 8926.81 1626.76 8914.87 1630.85 C 8902.92 1634.95 8892.13 1641.86 8883.41 1650.99 C 8874.69 1660.13 8868.29 1671.23 8864.76 1683.35 C 8861.23 1695.48 8860.66 1708.27 8863.10 1720.66 Z" fill="#ce6f64" fill-rule="nonzero" node-id="270" stroke="none" target-height="229.57007" target-width="170.91992" target-x="8860.66" target-y="1625.59"></path><path d="M 8993.59 1377.57 C 8902.74 1411.78 8847.53 1759.60 8954.66 1818.82 C 9061.78 1878.05 9165.61 1312.91 8993.59 1377.57 Z" fill="#263238" fill-rule="nonzero" node-id="272" stroke="none" target-height="565.14" target-width="318.08008" target-x="8847.53" target-y="1312.91"></path><path d="M 8840.21 1498.15 C 8907.23 1568.94 9248.91 1483.99 9261.88 1362.23 C 9274.86 1240.47 8713.50 1365.06 8840.21 1498.15 Z" fill="#263238" fill-rule="nonzero" node-id="274" stroke="none" target-height="328.46997" target-width="561.36035" target-x="8713.5" target-y="1240.47"></path><path d="M 9396.15 1572.71 C 9389.78 1749.92 9394.97 1853.51 9308.60 1950.26 C 9282.10 1982.54 9247.19 2006.87 9207.73 2020.57 C 9168.27 2034.27 9125.79 2036.81 9084.99 2027.90 C 9044.18 2018.99 9006.62 1998.99 8976.46 1970.09 C 8946.30 1941.19 8924.71 1904.52 8914.07 1864.13 C 8872.54 1708.86 8890.47 1445.29 9059.90 1360.81 C 9095.44 1341.30 9135.57 1331.64 9176.10 1332.86 C 9216.64 1334.08 9256.11 1346.13 9290.42 1367.75 C 9324.73 1389.37 9352.62 1419.78 9371.22 1455.82 C 9389.81 1491.86 9398.42 1532.22 9396.15 1572.71 Z" fill="#e4897b" fill-rule="nonzero" node-id="276" stroke="none" target-height="705.17004" target-width="525.8799" target-x="8872.54" target-y="1331.64"></path><path d="M 9289.26 1204.84 C 9414.55 1173.93 9441.92 1209.33 9447.59 1294.98 C 9453.25 1380.64 9567.46 1356.80 9529.00 1486.11 C 9511.06 1547.23 9465.05 1542.04 9493.13 1614.01 C 9525.22 1696.83 9334.80 1797.12 9289.96 1796.88 C 9216.11 1796.88 9232.39 1643.03 9292.56 1503.10 C 9337.63 1398.33 9225.31 1427.36 9096.47 1466.53 C 8806.23 1554.54 8613.92 1301.35 8793.96 1180.07 C 8889.29 1115.65 9151.45 1249.20 9289.26 1204.84 Z" fill="#263238" fill-rule="nonzero" node-id="278" stroke="none" target-height="681.47" target-width="953.54004" target-x="8613.92" target-y="1115.65"></path><path d="M 9480.15 1760.54 C 9457.62 1799.88 9421.17 1829.35 9377.98 1843.13 C 9321.11 1860.59 9294.45 1810.56 9311.67 1756.53 C 9327.25 1707.68 9375.85 1639.96 9432.01 1646.33 C 9488.17 1652.70 9507.52 1711.70 9480.15 1760.54 Z" fill="#e4897b" fill-rule="nonzero" node-id="280" stroke="none" target-height="220.63" target-width="213.06934" target-x="9294.45" target-y="1639.96"></path><path d="M 8633.98 3822.64 C 8633.98 3822.64 8474.47 5250.00 8461.96 5791.78 C 8448.98 6355.50 9002.56 8113.68 9002.56 8113.68 L 9285.72 7994.52 C 9285.72 7994.52 8955.36 6388.30 9002.56 5834.96 C 9051.64 5232.54 9258.58 3822.64 9258.58 3822.64 L 8633.98 3822.64 Z" fill="#263238" fill-rule="nonzero" node-id="282" stroke="none" target-height="4291.04" target-width="836.73926" target-x="8448.98" target-y="3822.64"></path><path d="M 9030.17 4215.53 C 8903.22 4479.34 8988.87 5000.82 9057.77 5309.93 C 9083.97 5091.90 9114.88 4854.99 9144.37 4635.78 C 9141.54 4298.59 9115.35 4038.55 9030.17 4215.53 Z" fill="#182137" fill-rule="nonzero" node-id="284" stroke="none" target-height="1271.3801" target-width="241.15039" target-x="8903.22" target-y="4038.55"></path><path d="M 9273.45 7902.96 C 9274.63 7902.96 9306.95 7993.34 9306.95 7993.34 L 8980.38 8130.43 L 8928.70 8034.87 L 9273.45 7902.96 Z" fill="#429cfd" fill-rule="nonzero" node-id="286" stroke="none" target-height="227.47021" target-width="378.25" target-x="8928.7" target-y="7902.96"></path><path d="M 9273.45 7902.96 C 9274.63 7902.96 9306.95 7993.34 9306.95 7993.34 L 8980.38 8130.43 L 8928.70 8034.87 L 9273.45 7902.96 Z" fill="#fafafa" fill-opacity="0.6" fill-rule="nonzero" group-id="5" node-id="290" stroke="none" target-height="227.47021" target-width="378.25" target-x="8928.7" target-y="7902.96"></path><path d="M 8970.94 3822.64 C 8970.94 3822.64 9092.93 5180.15 9173.87 5688.90 C 9262.36 6246.01 9610.17 8101.41 9610.17 8101.41 L 9935.80 8101.41 C 9935.80 8101.41 9740.66 6290.84 9703.85 5739.39 C 9663.97 5140.75 9584.21 3822.64 9584.21 3822.64 L 8970.94 3822.64 Z" fill="#263238" fill-rule="nonzero" node-id="293" stroke="none" target-height="4278.7705" target-width="964.8594" target-x="8970.94" target-y="3822.64"></path><path d="M 9940.76 8003.95 C 9941.94 8003.95 9951.61 8108.49 9951.61 8108.49 L 9593.89 8108.49 L 9568.40 7990.50 L 9940.76 8003.95 Z" fill="#429cfd" fill-rule="nonzero" node-id="295" stroke="none" target-height="117.990234" target-width="383.20996" target-x="9568.4" target-y="7990.5"></path><path d="M 9940.76 8003.95 C 9941.94 8003.95 9951.61 8108.49 9951.61 8108.49 L 9593.89 8108.49 L 9568.40 7990.50 L 9940.76 8003.95 Z" fill="#fafafa" fill-opacity="0.6" fill-rule="nonzero" group-id="6" node-id="299" stroke="none" target-height="117.990234" target-width="383.20996" target-x="9568.4" target-y="7990.5"></path><path d="M 9816.17 7910.04 C 9815.41 7910.04 9814.70 7909.74 9814.16 7909.21 C 9813.63 7908.68 9813.33 7907.96 9813.33 7907.21 C 9811.45 7890.93 9635.65 6255.45 9602.62 5759.92 C 9566.75 5222.15 9494.54 4030.06 9493.84 4018.02 C 9493.80 4017.62 9493.85 4017.21 9493.98 4016.83 C 9494.10 4016.44 9494.30 4016.09 9494.57 4015.78 C 9494.83 4015.47 9495.15 4015.22 9495.51 4015.04 C 9495.87 4014.86 9496.27 4014.75 9496.67 4014.72 C 9497.44 4014.72 9498.19 4015.01 9498.76 4015.53 C 9499.33 4016.06 9499.68 4016.78 9499.74 4017.55 C 9499.74 4029.58 9572.65 5220.97 9608.52 5759.45 C 9641.55 6254.98 9817.35 7889.27 9819.23 7906.73 C 9819.30 7907.12 9819.28 7907.53 9819.19 7907.91 C 9819.09 7908.29 9818.91 7908.65 9818.67 7908.96 C 9818.42 7909.27 9818.12 7909.53 9817.77 7909.72 C 9817.42 7909.90 9817.03 7910.01 9816.64 7910.04 L 9816.17 7910.04 Z" fill="#429cfd" fill-rule="nonzero" node-id="302" stroke="none" target-height="3895.32" target-width="325.5" target-x="9493.8" target-y="4014.72"></path><path d="M 9816.17 7910.04 C 9815.41 7910.04 9814.70 7909.74 9814.16 7909.21 C 9813.63 7908.68 9813.33 7907.96 9813.33 7907.21 C 9811.45 7890.93 9635.65 6255.45 9602.62 5759.92 C 9566.75 5222.15 9494.54 4030.06 9493.84 4018.02 C 9493.80 4017.62 9493.85 4017.21 9493.98 4016.83 C 9494.10 4016.44 9494.30 4016.09 9494.57 4015.78 C 9494.83 4015.47 9495.15 4015.22 9495.51 4015.04 C 9495.87 4014.86 9496.27 4014.75 9496.67 4014.72 C 9497.44 4014.72 9498.19 4015.01 9498.76 4015.53 C 9499.33 4016.06 9499.68 4016.78 9499.74 4017.55 C 9499.74 4029.58 9572.65 5220.97 9608.52 5759.45 C 9641.55 6254.98 9817.35 7889.27 9819.23 7906.73 C 9819.30 7907.12 9819.28 7907.53 9819.19 7907.91 C 9819.09 7908.29 9818.91 7908.65 9818.67 7908.96 C 9818.42 7909.27 9818.12 7909.53 9817.77 7909.72 C 9817.42 7909.90 9817.03 7910.01 9816.64 7910.04 L 9816.17 7910.04 Z" fill="#000000" fill-opacity="0.5" fill-rule="nonzero" group-id="7" node-id="306" stroke="none" target-height="3895.32" target-width="325.5" target-x="9493.8" target-y="4014.72"></path><path d="M 9131.87 1644.21 C 9131.87 1658.60 9125.02 1670.87 9115.58 1671.58 C 9106.15 1672.29 9098.36 1661.44 9098.12 1647.99 C 9097.89 1634.54 9104.97 1621.32 9114.41 1620.61 C 9123.84 1619.91 9131.87 1629.82 9131.87 1644.21 Z" fill="#263238" fill-rule="nonzero" node-id="309" stroke="none" target-height="52.380005" target-width="33.98047" target-x="9097.89" target-y="1619.91"></path><path d="M 8969.99 1657.66 C 8969.99 1672.05 8963.15 1684.32 8953.71 1685.03 C 8944.27 1685.74 8936.49 1674.89 8936.25 1661.44 C 8936.01 1647.99 8943.09 1634.77 8952.53 1634.06 C 8961.97 1633.36 8969.52 1643.27 8969.99 1657.66 Z" fill="#263238" fill-rule="nonzero" node-id="311" stroke="none" target-height="52.380005" target-width="33.98047" target-x="8936.01" target-y="1633.36"></path><path d="M 9021.43 1660.49 C 9005.41 1706.01 8983.51 1749.24 8956.31 1789.09 C 8982.03 1810.57 9024.74 1796.17 9024.74 1796.17 L 9021.43 1660.49 Z" fill="#de5753" fill-rule="nonzero" node-id="313" stroke="none" target-height="150.07996" target-width="68.430664" target-x="8956.31" target-y="1660.49"></path><path d="M 9041.73 1855.16 C 9040.64 1855.16 9039.59 1854.75 9038.80 1854.00 C 9038.01 1853.26 9037.54 1852.24 9037.48 1851.15 C 9037.48 1850.00 9037.92 1848.90 9038.71 1848.06 C 9039.50 1847.23 9040.58 1846.73 9041.73 1846.67 C 9059.85 1845.35 9077.44 1839.98 9093.20 1830.96 C 9108.97 1821.93 9122.50 1809.48 9132.81 1794.52 C 9133.34 1793.58 9134.23 1792.89 9135.27 1792.60 C 9136.31 1792.32 9137.42 1792.45 9138.36 1792.99 C 9139.29 1793.52 9139.98 1794.40 9140.27 1795.44 C 9140.56 1796.48 9140.42 1797.59 9139.89 1798.53 C 9128.94 1814.84 9114.40 1828.43 9097.38 1838.24 C 9080.37 1848.06 9061.33 1853.85 9041.73 1855.16 Z" fill="#263238" fill-rule="nonzero" node-id="315" stroke="none" target-height="62.840088" target-width="103.0791" target-x="9037.48" target-y="1792.32"></path><path d="M 9182.36 1552.65 C 9181.06 1552.70 9179.77 1552.45 9178.59 1551.92 C 9177.40 1551.38 9176.35 1550.59 9175.52 1549.59 C 9169.06 1541.29 9160.74 1534.64 9151.23 1530.17 C 9141.71 1525.70 9131.28 1523.54 9120.78 1523.87 C 9119.70 1524.00 9118.61 1523.91 9117.58 1523.61 C 9116.54 1523.31 9115.57 1522.80 9114.73 1522.12 C 9113.90 1521.44 9113.21 1520.59 9112.70 1519.63 C 9112.20 1518.68 9111.90 1517.63 9111.81 1516.55 C 9111.74 1514.29 9112.52 1512.08 9114.01 1510.37 C 9115.50 1508.67 9117.58 1507.59 9119.83 1507.35 C 9133.10 1506.74 9146.32 1509.32 9158.38 1514.86 C 9170.45 1520.40 9181.02 1528.75 9189.21 1539.20 C 9189.89 1540.06 9190.39 1541.04 9190.68 1542.10 C 9190.96 1543.16 9191.03 1544.26 9190.88 1545.34 C 9190.72 1546.42 9190.35 1547.46 9189.78 1548.40 C 9189.20 1549.33 9188.45 1550.14 9187.55 1550.77 C 9186.07 1551.94 9184.25 1552.60 9182.36 1552.65 Z" fill="#263238" fill-rule="nonzero" node-id="317" stroke="none" target-height="45.95996" target-width="79.29004" target-x="9111.74" target-y="1506.74"></path><path d="M 8899.91 1576.96 C 8898.71 1576.65 8897.58 1576.09 8896.61 1575.31 C 8895.82 1574.54 8895.20 1573.62 8894.77 1572.61 C 8894.35 1571.59 8894.13 1570.51 8894.13 1569.41 C 8894.13 1568.31 8894.35 1567.22 8894.77 1566.21 C 8895.20 1565.20 8895.82 1564.28 8896.61 1563.51 C 8904.78 1552.47 8915.46 1543.52 8927.77 1537.41 C 8940.08 1531.30 8953.66 1528.19 8967.40 1528.35 C 8968.49 1528.40 8969.55 1528.68 8970.53 1529.18 C 8971.50 1529.67 8972.36 1530.36 8973.05 1531.20 C 8973.74 1532.05 8974.25 1533.03 8974.53 1534.08 C 8974.82 1535.14 8974.88 1536.24 8974.71 1537.32 C 8974.37 1539.55 8973.22 1541.57 8971.48 1543.01 C 8969.74 1544.44 8967.53 1545.19 8965.27 1545.10 C 8954.51 1545.35 8943.93 1548.05 8934.37 1552.99 C 8924.80 1557.94 8916.48 1565.01 8910.06 1573.66 C 8908.92 1575.19 8907.33 1576.34 8905.51 1576.93 C 8903.69 1577.52 8901.74 1577.53 8899.91 1576.96 Z" fill="#263238" fill-rule="nonzero" node-id="319" stroke="none" target-height="49.340088" target-width="80.75" target-x="8894.13" target-y="1528.19"></path><path d="M 9821.59 2510.91 L 9575.95 2445.55 C 9575.95 2445.55 9335.27 3038.06 9250.32 3076.76 C 9134.70 3129.38 8841.63 3312.72 8717.27 3399.32 C 8710.20 3428.58 8715.62 3506.92 8731.43 3528.16 C 8943.80 3489.70 9350.37 3333.25 9435.32 3253.50 C 9628.81 3072.28 9821.59 2510.91 9821.59 2510.91 Z" fill="#e4897b" fill-rule="nonzero" node-id="321" stroke="none" target-height="1082.6099" target-width="1111.3896" target-x="8710.2" target-y="2445.55"></path><path d="M 9885.54 2443.19 C 9950.43 2652.25 9696.77 2938.72 9696.77 2938.72 L 9346.36 2795.72 C 9387.71 2674.63 9435.52 2555.85 9489.59 2439.88 C 9597.43 2207.93 9819.94 2232.00 9885.54 2443.19 Z" fill="#429cfd" fill-rule="nonzero" node-id="323" stroke="none" target-height="730.79004" target-width="604.06934" target-x="9346.36" target-y="2207.93"></path><path d="M 9885.54 2443.19 C 9950.43 2652.25 9696.77 2938.72 9696.77 2938.72 L 9346.36 2795.72 C 9387.71 2674.63 9435.52 2555.85 9489.59 2439.88 C 9597.43 2207.93 9819.94 2232.00 9885.54 2443.19 Z" fill="#fafafa" fill-opacity="0.6" fill-rule="nonzero" group-id="8" node-id="327" stroke="none" target-height="730.79004" target-width="604.06934" target-x="9346.36" target-y="2207.93"></path><path d="M 9650.99 8353.18 C 9639.04 8354.28 9627.08 8351.10 9617.25 8344.22 C 9614.21 8341.47 9611.94 8337.98 9610.65 8334.10 C 9609.37 8330.21 9609.12 8326.05 9609.93 8322.04 C 9610.07 8319.53 9610.86 8317.09 9612.22 8314.98 C 9613.59 8312.87 9615.48 8311.15 9617.72 8310.00 C 9637.78 8300.09 9693.23 8335.25 9699.36 8339.26 C 9700.06 8339.71 9700.60 8340.35 9700.94 8341.11 C 9701.28 8341.86 9701.38 8342.70 9701.25 8343.51 C 9701.04 8344.34 9700.59 8345.09 9699.97 8345.68 C 9699.34 8346.27 9698.56 8346.66 9697.71 8346.81 C 9682.43 8350.69 9666.75 8352.83 9650.99 8353.18 Z M 9627.39 8316.61 C 9625.61 8316.21 9623.75 8316.21 9621.97 8316.61 C 9621.07 8317.10 9620.32 8317.81 9619.78 8318.68 C 9619.24 8319.55 9618.94 8320.54 9618.90 8321.57 C 9618.34 8324.31 9618.48 8327.16 9619.30 8329.84 C 9620.13 8332.52 9621.61 8334.95 9623.62 8336.90 C 9643.46 8345.90 9665.99 8347.00 9686.62 8339.97 C 9668.24 8328.02 9647.60 8319.99 9625.98 8316.37 L 9627.39 8316.61 Z" fill="#429cfd" fill-rule="nonzero" node-id="330" stroke="none" target-height="54.19043" target-width="92.259766" target-x="9609.12" target-y="8300.09"></path><path d="M 9696.06 8346.81 L 9694.17 8346.81 C 9676.24 8336.67 9642.97 8297.73 9646.98 8277.91 C 9647.85 8274.81 9649.70 8272.08 9652.25 8270.12 C 9654.80 8268.17 9657.92 8267.09 9661.14 8267.06 C 9664.27 8266.57 9667.47 8266.80 9670.50 8267.74 C 9673.52 8268.68 9676.30 8270.31 9678.60 8272.48 C 9698.42 8289.24 9699.60 8340.44 9699.60 8343.27 C 9699.60 8344.46 9699.13 8345.60 9698.29 8346.44 C 9697.45 8347.28 9696.30 8347.76 9695.12 8347.76 L 9696.06 8346.81 Z M 9664.44 8274.84 L 9662.55 8274.84 C 9657.13 8274.84 9656.42 8278.15 9656.18 8279.09 C 9653.11 8290.89 9674.11 8320.15 9691.58 8334.07 C 9691.54 8314.13 9685.36 8294.68 9673.88 8278.38 C 9671.27 8276.08 9667.91 8274.82 9664.44 8274.84 Z" fill="#429cfd" fill-rule="nonzero" node-id="332" stroke="none" target-height="81.18945" target-width="56.629883" target-x="9642.97" target-y="8266.57"></path><path d="M 9023.56 8323.69 C 9009.20 8328.72 8993.56 8328.72 8979.20 8323.69 C 8975.76 8322.07 8972.80 8319.59 8970.61 8316.49 C 8968.41 8313.39 8967.07 8309.77 8966.69 8305.99 C 8966.43 8303.68 8966.72 8301.34 8967.54 8299.17 C 8968.36 8296.99 8969.69 8295.04 8971.41 8293.48 C 8990.52 8276.73 9067.45 8294.90 9076.18 8297.02 C 9076.98 8297.25 9077.70 8297.70 9078.24 8298.33 C 9078.79 8298.96 9079.14 8299.74 9079.25 8300.56 C 9079.28 8301.45 9079.05 8302.32 9078.59 8303.08 C 9078.13 8303.84 9077.45 8304.44 9076.65 8304.81 C 9059.55 8312.66 9041.78 8318.98 9023.56 8323.69 Z M 8985.33 8295.61 C 8982.58 8296.08 8979.99 8297.22 8977.78 8298.91 C 8977.09 8299.57 8976.58 8300.39 8976.29 8301.30 C 8976.00 8302.20 8975.95 8303.17 8976.13 8304.10 C 8976.19 8306.54 8976.89 8308.92 8978.18 8311.00 C 8979.47 8313.07 8981.28 8314.77 8983.44 8315.90 C 8995.95 8322.74 9025.21 8317.32 9062.49 8301.74 C 9037.32 8295.24 9011.21 8293.17 8985.33 8295.61 Z" fill="#429cfd" fill-rule="nonzero" node-id="334" stroke="none" target-height="51.989258" target-width="112.850586" target-x="8966.43" target-y="8276.73"></path><path d="M 9076.65 8304.34 L 9075.00 8304.34 C 9051.40 8300.09 9004.21 8272.95 9002.79 8252.66 C 9002.79 8247.94 9004.92 8241.33 9016.01 8237.32 C 9023.75 8234.67 9032.23 8235.18 9039.60 8238.74 C 9065.32 8251.48 9078.77 8296.79 9079.25 8298.67 C 9079.58 8299.33 9079.75 8300.06 9079.75 8300.80 C 9079.75 8301.53 9079.58 8302.26 9079.25 8302.92 C 9078.95 8303.34 9078.57 8303.69 9078.12 8303.94 C 9077.66 8304.18 9077.16 8304.32 9076.65 8304.34 Z M 9020.96 8244.87 L 9018.37 8244.87 C 9011.05 8247.47 9011.29 8250.54 9011.29 8251.48 C 9011.29 8263.51 9045.50 8285.93 9069.34 8293.48 C 9063.73 8274.58 9052.14 8258.02 9036.30 8246.29 C 9031.56 8243.87 9026.07 8243.36 9020.96 8244.87 Z" fill="#429cfd" fill-rule="nonzero" node-id="336" stroke="none" target-height="69.66992" target-width="76.95996" target-x="9002.79" target-y="8234.67"></path><path d="M 6843.00 3691.45 C 6863.23 3633.80 6900.52 3583.68 6949.92 3547.72 C 6999.31 3511.77 7058.48 3491.70 7119.55 3490.17 L 9509.41 3490.17 C 9542.38 3489.39 9575.11 3495.83 9605.32 3509.04 C 9635.53 3522.26 9662.49 3541.92 9684.30 3566.65 C 9706.11 3591.38 9722.24 3620.58 9731.57 3652.21 C 9740.90 3683.84 9743.19 3717.12 9738.30 3749.73 L 9207.14 8264.46 C 9197.52 8335.12 9163.05 8400.05 9109.91 8447.61 C 9056.77 8495.18 8988.43 8522.26 8917.14 8524.02 L 2923.61 8524.02 C 2890.64 8524.84 2857.88 8518.43 2827.65 8505.23 C 2797.42 8492.03 2770.44 8472.37 2748.63 8447.63 C 2726.81 8422.89 2710.68 8393.67 2701.37 8362.02 C 2692.05 8330.38 2689.79 8297.07 2694.73 8264.46 L 3147.31 4421.29 C 3156.93 4350.62 3191.40 4285.70 3244.54 4238.13 C 3297.68 4190.57 3366.02 4163.49 3437.31 4161.73 L 6198.11 4161.73 C 6479.38 4161.73 6747.20 3966.82 6843.00 3691.45 Z" fill="#429cfd" fill-rule="nonzero" node-id="338" stroke="none" target-height="5035.45" target-width="7053.4004" target-x="2689.79" target-y="3489.39"></path><path d="M 6843.00 3691.45 C 6863.23 3633.80 6900.52 3583.68 6949.92 3547.72 C 6999.31 3511.77 7058.48 3491.70 7119.55 3490.17 L 9509.41 3490.17 C 9542.38 3489.39 9575.11 3495.83 9605.32 3509.04 C 9635.53 3522.26 9662.49 3541.92 9684.30 3566.65 C 9706.11 3591.38 9722.24 3620.58 9731.57 3652.21 C 9740.90 3683.84 9743.19 3717.12 9738.30 3749.73 L 9207.14 8264.46 C 9197.52 8335.12 9163.05 8400.05 9109.91 8447.61 C 9056.77 8495.18 8988.43 8522.26 8917.14 8524.02 L 2923.61 8524.02 C 2890.64 8524.84 2857.88 8518.43 2827.65 8505.23 C 2797.42 8492.03 2770.44 8472.37 2748.63 8447.63 C 2726.81 8422.89 2710.68 8393.67 2701.37 8362.02 C 2692.05 8330.38 2689.79 8297.07 2694.73 8264.46 L 3147.31 4421.29 C 3156.93 4350.62 3191.40 4285.70 3244.54 4238.13 C 3297.68 4190.57 3366.02 4163.49 3437.31 4161.73 L 6198.11 4161.73 C 6479.38 4161.73 6747.20 3966.82 6843.00 3691.45 Z" fill="#fafafa" fill-opacity="0.1" fill-rule="nonzero" group-id="9" node-id="342" stroke="none" target-height="5035.45" target-width="7053.4004" target-x="2689.79" target-y="3489.39"></path><path d="M 4706.60 1692.65 L 1478.94 3943.46 L 3609.35 6998.47 L 6837.01 4747.66 L 4706.60 1692.65 Z" fill="#429cfd" fill-rule="nonzero" node-id="345" stroke="none" target-height="5305.8203" target-width="5358.07" target-x="1478.94" target-y="1692.65"></path><path d="M 4706.60 1692.65 L 1478.94 3943.46 L 3609.35 6998.47 L 6837.01 4747.66 L 4706.60 1692.65 Z" fill="#fafafa" fill-opacity="0.8" fill-rule="nonzero" group-id="10" node-id="349" stroke="none" target-height="5305.8203" target-width="5358.07" target-x="1478.94" target-y="1692.65"></path><path d="M 4698.10 1740.14 L 1470.45 3990.95 L 3600.86 7045.96 L 6828.52 4795.16 L 4698.10 1740.14 Z" fill="#fafafa" fill-rule="nonzero" node-id="352" stroke="none" target-height="5305.82" target-width="5358.0703" target-x="1470.45" target-y="1740.14"></path><path d="M 4632.35 2142.50 L 1870.37 4068.57 L 3337.80 6172.85 L 6099.77 4246.79 L 4632.35 2142.50 Z" fill="#429cfd" fill-rule="nonzero" node-id="354" stroke="none" target-height="4030.35" target-width="4229.4" target-x="1870.37" target-y="2142.5"></path><path d="M 4632.35 2142.50 L 1870.37 4068.57 L 3337.80 6172.85 L 6099.77 4246.79 L 4632.35 2142.50 Z" fill="#fafafa" fill-opacity="0.8" fill-rule="nonzero" group-id="11" node-id="358" stroke="none" target-height="4030.35" target-width="4229.4" target-x="1870.37" target-y="2142.5"></path><path d="M 3574.88 3953.84 C 3628.29 4030.46 3657.76 4121.20 3659.58 4214.57 C 3661.39 4307.95 3635.46 4399.76 3585.06 4478.39 C 3534.66 4557.02 3462.07 4618.93 3376.47 4656.28 C 3290.87 4693.63 3196.11 4704.74 3104.20 4688.21 C 3012.28 4671.68 2927.33 4628.24 2860.11 4563.41 C 2792.89 4498.57 2746.42 4415.25 2726.58 4323.99 C 2706.74 4232.73 2714.42 4137.63 2748.65 4050.74 C 2782.89 3963.84 2842.14 3889.06 2918.89 3835.86 C 3021.58 3764.68 3148.30 3737.13 3271.27 3759.25 C 3394.24 3781.37 3503.43 3851.35 3574.88 3953.84 Z" fill="#429cfd" fill-rule="nonzero" node-id="361" stroke="none" target-height="967.61035" target-width="954.6499" target-x="2706.74" target-y="3737.13"></path><path d="M 3574.88 3953.84 C 3628.29 4030.46 3657.76 4121.20 3659.58 4214.57 C 3661.39 4307.95 3635.46 4399.76 3585.06 4478.39 C 3534.66 4557.02 3462.07 4618.93 3376.47 4656.28 C 3290.87 4693.63 3196.11 4704.74 3104.20 4688.21 C 3012.28 4671.68 2927.33 4628.24 2860.11 4563.41 C 2792.89 4498.57 2746.42 4415.25 2726.58 4323.99 C 2706.74 4232.73 2714.42 4137.63 2748.65 4050.74 C 2782.89 3963.84 2842.14 3889.06 2918.89 3835.86 C 3021.58 3764.68 3148.30 3737.13 3271.27 3759.25 C 3394.24 3781.37 3503.43 3851.35 3574.88 3953.84 Z" fill="#fafafa" fill-opacity="0.1" fill-rule="nonzero" group-id="12" node-id="365" stroke="none" target-height="967.61035" target-width="954.6499" target-x="2706.74" target-y="3737.13"></path><path d="M 5336.60 3745.96 C 5265.49 3675.12 5179.68 3620.79 5085.24 3586.82 C 4990.79 3552.86 4890.03 3540.08 4790.10 3549.40 C 4787.03 3545.15 4784.67 3540.43 4781.61 3535.95 C 4690.20 3403.25 4554.90 3307.07 4399.54 3264.33 C 4244.18 3221.60 4078.73 3235.06 3932.32 3302.34 C 3785.91 3369.63 3667.94 3486.42 3599.18 3632.14 C 3530.43 3777.87 3515.31 3943.18 3556.47 4098.96 C 3535.85 4108.68 3516.04 4120.04 3497.25 4132.94 C 3429.96 4179.72 3378.26 4245.61 3348.81 4322.08 C 3319.37 4398.55 3313.53 4482.10 3332.07 4561.93 C 3242.01 4597.23 3165.26 4659.86 3112.62 4741.02 C 3058.53 4821.71 3029.20 4916.44 3028.24 5013.58 C 3027.27 5110.71 3054.72 5206.01 3107.19 5287.76 C 3143.34 5342.05 3189.97 5388.58 3244.35 5424.62 C 3298.72 5460.65 3359.75 5485.46 3423.84 5497.59 C 3487.93 5509.73 3553.80 5508.93 3617.58 5495.27 C 3681.36 5481.60 3741.78 5455.34 3795.27 5418.01 L 4589.29 4864.20 L 5316.78 4356.87 C 5397.66 4301.62 5453.54 4216.74 5472.31 4120.60 C 5491.07 4024.46 5471.23 3924.79 5417.06 3843.17 L 5414.94 3839.87 C 5391.72 3806.26 5365.50 3774.83 5336.60 3745.96 Z" fill="#429cfd" fill-rule="nonzero" node-id="368" stroke="none" target-height="2288.13" target-width="2463.7998" target-x="3027.27" target-y="3221.6"></path><path d="M 5336.60 3745.96 C 5265.49 3675.12 5179.68 3620.79 5085.24 3586.82 C 4990.79 3552.86 4890.03 3540.08 4790.10 3549.40 C 4787.03 3545.15 4784.67 3540.43 4781.61 3535.95 C 4690.20 3403.25 4554.90 3307.07 4399.54 3264.33 C 4244.18 3221.60 4078.73 3235.06 3932.32 3302.34 C 3785.91 3369.63 3667.94 3486.42 3599.18 3632.14 C 3530.43 3777.87 3515.31 3943.18 3556.47 4098.96 C 3535.85 4108.68 3516.04 4120.04 3497.25 4132.94 C 3429.96 4179.72 3378.26 4245.61 3348.81 4322.08 C 3319.37 4398.55 3313.53 4482.10 3332.07 4561.93 C 3242.01 4597.23 3165.26 4659.86 3112.62 4741.02 C 3058.53 4821.71 3029.20 4916.44 3028.24 5013.58 C 3027.27 5110.71 3054.72 5206.01 3107.19 5287.76 C 3143.34 5342.05 3189.97 5388.58 3244.35 5424.62 C 3298.72 5460.65 3359.75 5485.46 3423.84 5497.59 C 3487.93 5509.73 3553.80 5508.93 3617.58 5495.27 C 3681.36 5481.60 3741.78 5455.34 3795.27 5418.01 L 4589.29 4864.20 L 5316.78 4356.87 C 5397.66 4301.62 5453.54 4216.74 5472.31 4120.60 C 5491.07 4024.46 5471.23 3924.79 5417.06 3843.17 L 5414.94 3839.87 C 5391.72 3806.26 5365.50 3774.83 5336.60 3745.96 Z" fill="#000000" fill-opacity="0.3" fill-rule="nonzero" group-id="13" node-id="372" stroke="none" target-height="2288.13" target-width="2463.7998" target-x="3027.27" target-y="3221.6"></path><path d="M 4808.57 2230.94 L 1501.34 4363.11 L 3519.47 7493.43 L 6826.69 5361.26 L 4808.57 2230.94 Z" fill="#429cfd" fill-rule="nonzero" group-id="14" node-id="377" stroke="none" target-height="5262.49" target-width="5325.35" target-x="1501.34" target-y="2230.94"></path><path d="M 4808.57 2230.94 L 1501.34 4363.11 L 3519.47 7493.43 L 6826.69 5361.26 L 4808.57 2230.94 Z" fill="#fafafa" fill-opacity="0.8" fill-rule="nonzero" group-id="15" node-id="382" stroke="none" target-height="5262.49" target-width="5325.35" target-x="1501.34" target-y="2230.94"></path><path d="M 4798.60 2278.42 L 1491.38 4410.60 L 3509.50 7540.92 L 6816.73 5408.74 L 4798.60 2278.42 Z" fill="#fafafa" fill-rule="nonzero" node-id="385" stroke="none" target-height="5262.5" target-width="5325.35" target-x="1491.38" target-y="2278.42"></path><path d="M 4718.39 2678.19 L 1888.33 4502.73 L 3278.41 6658.90 L 6108.47 4834.35 L 4718.39 2678.19 Z" fill="#429cfd" fill-rule="nonzero" node-id="387" stroke="none" target-height="3980.71" target-width="4220.14" target-x="1888.33" target-y="2678.19"></path><path d="M 4718.39 2678.19 L 1888.33 4502.73 L 3278.41 6658.90 L 6108.47 4834.35 L 4718.39 2678.19 Z" fill="#fafafa" fill-opacity="0.8" fill-rule="nonzero" group-id="16" node-id="391" stroke="none" target-height="3980.71" target-width="4220.14" target-x="1888.33" target-y="2678.19"></path><path d="M 3659.92 4803.80 C 3714.27 4549.42 3552.11 4299.15 3297.73 4244.80 C 3043.35 4190.45 2793.08 4352.61 2738.73 4606.99 C 2684.38 4861.36 2846.54 5111.64 3100.92 5165.98 C 3355.30 5220.33 3605.57 5058.18 3659.92 4803.80 Z" fill="#429cfd" fill-rule="nonzero" node-id="394" stroke="none" target-height="1029.8799" target-width="1029.8901" target-x="2684.38" target-y="4190.45"></path><path d="M 3659.92 4803.80 C 3714.27 4549.42 3552.11 4299.15 3297.73 4244.80 C 3043.35 4190.45 2793.08 4352.61 2738.73 4606.99 C 2684.38 4861.36 2846.54 5111.64 3100.92 5165.98 C 3355.30 5220.33 3605.57 5058.18 3659.92 4803.80 Z" fill="#fafafa" fill-opacity="0.1" fill-rule="nonzero" group-id="17" node-id="398" stroke="none" target-height="1029.8799" target-width="1029.8901" target-x="2684.38" target-y="4190.45"></path><path d="M 5363.50 4306.85 C 5294.98 4233.40 5211.13 4175.94 5117.90 4138.54 C 5024.68 4101.15 4924.36 4084.73 4824.08 4090.47 C 4821.25 4085.75 4819.12 4081.03 4816.06 4076.54 C 4729.46 3940.60 4597.66 3839.58 4443.88 3791.29 C 4290.10 3743.01 4124.21 3750.56 3975.45 3812.62 C 3826.69 3874.67 3704.60 3987.24 3630.72 4130.50 C 3556.84 4273.75 3535.89 4438.48 3571.57 4595.67 C 3550.50 4604.46 3530.21 4615.04 3510.93 4627.29 C 3442.14 4671.64 3388.21 4735.58 3356.08 4810.86 C 3323.95 4886.14 3315.09 4969.31 3330.65 5049.67 C 3239.31 5081.49 3160.30 5141.26 3104.83 5220.51 C 3047.83 5299.14 3015.07 5392.72 3010.58 5489.74 C 3006.09 5586.76 3030.08 5682.97 3079.59 5766.53 C 3113.65 5822.19 3158.50 5870.48 3211.49 5908.57 C 3264.48 5946.65 3324.55 5973.77 3388.16 5988.32 C 3451.77 6002.87 3517.66 6004.57 3581.93 5993.30 C 3646.21 5982.04 3707.59 5958.05 3762.47 5922.74 L 4577.73 5397.01 L 5323.38 4916.35 C 5406.02 4863.88 5464.71 4781.03 5486.78 4685.67 C 5508.85 4590.31 5492.54 4490.10 5441.37 4406.66 L 5439.01 4403.36 C 5416.88 4368.92 5391.60 4336.61 5363.50 4306.85 Z" fill="#429cfd" fill-rule="nonzero" node-id="401" stroke="none" target-height="2261.5598" target-width="2502.76" target-x="3006.09" target-y="3743.01"></path><path d="M 5363.50 4306.85 C 5294.98 4233.40 5211.13 4175.94 5117.90 4138.54 C 5024.68 4101.15 4924.36 4084.73 4824.08 4090.47 C 4821.25 4085.75 4819.12 4081.03 4816.06 4076.54 C 4729.46 3940.60 4597.66 3839.58 4443.88 3791.29 C 4290.10 3743.01 4124.21 3750.56 3975.45 3812.62 C 3826.69 3874.67 3704.60 3987.24 3630.72 4130.50 C 3556.84 4273.75 3535.89 4438.48 3571.57 4595.67 C 3550.50 4604.46 3530.21 4615.04 3510.93 4627.29 C 3442.14 4671.64 3388.21 4735.58 3356.08 4810.86 C 3323.95 4886.14 3315.09 4969.31 3330.65 5049.67 C 3239.31 5081.49 3160.30 5141.26 3104.83 5220.51 C 3047.83 5299.14 3015.07 5392.72 3010.58 5489.74 C 3006.09 5586.76 3030.08 5682.97 3079.59 5766.53 C 3113.65 5822.19 3158.50 5870.48 3211.49 5908.57 C 3264.48 5946.65 3324.55 5973.77 3388.16 5988.32 C 3451.77 6002.87 3517.66 6004.57 3581.93 5993.30 C 3646.21 5982.04 3707.59 5958.05 3762.47 5922.74 L 4577.73 5397.01 L 5323.38 4916.35 C 5406.02 4863.88 5464.71 4781.03 5486.78 4685.67 C 5508.85 4590.31 5492.54 4490.10 5441.37 4406.66 L 5439.01 4403.36 C 5416.88 4368.92 5391.60 4336.61 5363.50 4306.85 Z" fill="#000000" fill-opacity="0.3" fill-rule="nonzero" group-id="18" node-id="405" stroke="none" target-height="2261.5598" target-width="2502.76" target-x="3006.09" target-y="3743.01"></path><path d="M 7765.69 2621.34 L 3854.19 3050.41 L 4260.31 6752.68 L 8171.81 6323.61 L 7765.69 2621.34 Z" fill="#429cfd" fill-rule="nonzero" group-id="19" node-id="410" stroke="none" target-height="4131.34" target-width="4317.62" target-x="3854.19" target-y="2621.34"></path><path d="M 7765.69 2621.34 L 3854.19 3050.41 L 4260.31 6752.68 L 8171.81 6323.61 L 7765.69 2621.34 Z" fill="#fafafa" fill-opacity="0.8" fill-rule="nonzero" group-id="20" node-id="415" stroke="none" target-height="4131.34" target-width="4317.62" target-x="3854.19" target-y="2621.34"></path><path d="M 7735.30 2659.09 L 3823.80 3088.16 L 4229.92 6790.44 L 8141.42 6361.37 L 7735.30 2659.09 Z" fill="#fafafa" fill-rule="nonzero" node-id="418" stroke="none" target-height="4131.3496" target-width="4317.62" target-x="3823.8" target-y="2659.09"></path><path d="M 7484.93 2980.77 L 4137.78 3347.94 L 4417.51 5898.06 L 7764.66 5530.89 L 7484.93 2980.77 Z" fill="#429cfd" fill-rule="nonzero" node-id="420" stroke="none" target-height="2917.29" target-width="3626.8804" target-x="4137.78" target-y="2980.77"></path><path d="M 7484.93 2980.77 L 4137.78 3347.94 L 4417.51 5898.06 L 7764.66 5530.89 L 7484.93 2980.77 Z" fill="#fafafa" fill-opacity="0.8" fill-rule="nonzero" group-id="21" node-id="424" stroke="none" target-height="2917.29" target-width="3626.8804" target-x="4137.78" target-y="2980.77"></path><path d="M 7754.77 5437.59 L 7764.92 5530.80 L 6026.32 5721.70 L 6441.39 5229.47 L 6866.36 4724.98 L 7754.77 5437.59 Z" fill="#429cfd" fill-rule="nonzero" node-id="427" stroke="none" target-height="996.7202" target-width="1738.6001" target-x="6026.32" target-y="4724.98"></path><path d="M 7754.77 5437.59 L 7764.92 5530.80 L 6026.32 5721.70 L 6441.39 5229.47 L 6866.36 4724.98 L 7754.77 5437.59 Z" fill="#000000" fill-opacity="0.3" fill-rule="nonzero" group-id="22" node-id="431" stroke="none" target-height="996.7202" target-width="1738.6001" target-x="6026.32" target-y="4724.98"></path><path d="M 7012.19 5613.39 L 4417.98 5897.96 L 4395.33 5692.91 L 5413.52 4538.33 L 6441.39 5229.47 L 7012.19 5613.39 Z" fill="#429cfd" fill-rule="nonzero" node-id="434" stroke="none" target-height="1359.6299" target-width="2616.8599" target-x="4395.33" target-y="4538.33"></path><path d="M 7012.19 5613.39 L 4417.98 5897.96 L 4395.33 5692.91 L 5413.52 4538.33 L 6441.39 5229.47 L 7012.19 5613.39 Z" fill="#000000" fill-opacity="0.3" fill-rule="nonzero" group-id="23" node-id="438" stroke="none" target-height="1359.6299" target-width="2616.8599" target-x="4395.33" target-y="4538.33"></path><path d="M 6693.34 3928.17 C 6702.52 3708.25 6531.68 3522.53 6311.76 3513.35 C 6091.84 3504.17 5906.12 3675.01 5896.94 3894.93 C 5887.76 4114.84 6058.60 4300.57 6278.52 4309.74 C 6498.44 4318.92 6684.16 4148.08 6693.34 3928.17 Z" fill="#429cfd" fill-rule="nonzero" node-id="441" stroke="none" target-height="814.75" target-width="814.76025" target-x="5887.76" target-y="3504.17"></path><path d="M 6693.34 3928.17 C 6702.52 3708.25 6531.68 3522.53 6311.76 3513.35 C 6091.84 3504.17 5906.12 3675.01 5896.94 3894.93 C 5887.76 4114.84 6058.60 4300.57 6278.52 4309.74 C 6498.44 4318.92 6684.16 4148.08 6693.34 3928.17 Z" fill="#fafafa" fill-opacity="0.1" fill-rule="nonzero" group-id="24" node-id="445" stroke="none" target-height="814.75" target-width="814.76025" target-x="5887.76" target-y="3504.17"></path><path d="M 5824.81 4633.89 C 5840.85 4532.43 5937.84 4460.22 6058.89 4460.22 L 8449.45 4460.22 C 8592.68 4460.22 8719.63 4560.51 8732.61 4684.15 L 9053.05 8300.09 C 9066.50 8423.74 8961.03 8524.02 8817.09 8524.02 L 2823.56 8524.02 C 2680.10 8524.02 2553.15 8423.74 2540.40 8300.09 L 2282.97 5263.45 C 2269.52 5139.80 2374.76 5039.75 2518.93 5039.75 L 5279.73 5039.75 C 5560.53 5039.75 5787.29 4871.51 5824.81 4633.89 Z" fill="#429cfd" fill-opacity="0.7" fill-rule="nonzero" group-id="25" node-id="450" stroke="none" target-height="4063.7993" target-width="6796.98" target-x="2269.52" target-y="4460.22"></path><path d="M 8737.10 3385.40 L 8548.32 3450.05 L 8428.45 3534.53 L 8643.65 3618.06 C 8643.65 3618.06 8844.70 3596.82 8893.07 3487.81 L 8737.10 3385.40 Z" fill="#e4897b" fill-rule="nonzero" node-id="453" stroke="none" target-height="232.66016" target-width="464.62012" target-x="8428.45" target-y="3385.4"></path></svg>