<?xml version="1.0" standalone="no"?><!DOCTYPE svg PUBLIC "-//W3C//DTD SVG 1.1//EN" "http://www.w3.org/Graphics/SVG/1.1/DTD/svg11.dtd"><svg height="9148" node-id="1" sillyvg="true" template-height="9148" template-width="12277" version="1.1" viewBox="0 0 12277 9148" width="12277" xmlns="http://www.w3.org/2000/svg" xmlns:xlink="http://www.w3.org/1999/xlink"><defs node-id="109"></defs><path d="M 12276.40 8038.57 L 0.00 8038.57 L 0.00 8044.71 L 12276.40 8044.71 L 12276.40 8038.57 Z" fill="#ebebeb" fill-rule="nonzero" node-id="111" stroke="none" target-height="6.1401367" target-width="12276.4" target-x="0" target-y="8038.57"></path><path d="M 11046.30 8433.63 L 10233.10 8433.63 L 10233.10 8439.77 L 11046.30 8439.77 L 11046.30 8433.63 Z" fill="#ebebeb" fill-rule="nonzero" node-id="113" stroke="none" target-height="6.1396484" target-width="813.2002" target-x="10233.1" target-y="8433.63"></path><path d="M 9923.98 8433.63 L 8185.40 8433.63 L 8185.40 8439.77 L 9923.98 8439.77 L 9923.98 8433.63 Z" fill="#ebebeb" fill-rule="nonzero" node-id="115" stroke="none" target-height="6.1396484" target-width="1738.5806" target-x="8185.4" target-y="8433.63"></path><path d="M 7226.62 8205.78 L 6755.45 8205.78 L 6755.45 8211.92 L 7226.62 8211.92 L 7226.62 8205.78 Z" fill="#ebebeb" fill-rule="nonzero" node-id="117" stroke="none" target-height="6.1396484" target-width="471.16992" target-x="6755.45" target-y="8205.78"></path><path d="M 2129.95 8247.03 L 1288.04 8247.03 L 1288.04 8253.17 L 2129.95 8253.17 L 2129.95 8247.03 Z" fill="#ebebeb" fill-rule="nonzero" node-id="119" stroke="none" target-height="6.1396484" target-width="841.9099" target-x="1288.04" target-y="8247.03"></path><path d="M 3879.34 8247.03 L 2348.47 8247.03 L 2348.47 8253.17 L 3879.34 8253.17 L 3879.34 8247.03 Z" fill="#ebebeb" fill-rule="nonzero" node-id="121" stroke="none" target-height="6.1396484" target-width="1530.8701" target-x="2348.47" target-y="8247.03"></path><path d="M 5527.81 8350.64 L 4624.02 8350.64 L 4624.02 8356.78 L 5527.81 8356.78 L 5527.81 8350.64 Z" fill="#ebebeb" fill-rule="nonzero" node-id="123" stroke="none" target-height="6.140625" target-width="903.79004" target-x="4624.02" target-y="8350.64"></path><path d="M 5819.01 6943.52 L 1078.11 6943.52 C 1040.97 6943.46 1005.38 6928.66 979.14 6902.37 C 952.90 6876.09 938.16 6840.47 938.16 6803.33 L 938.16 138.97 C 938.48 102.04 953.36 66.73 979.57 40.71 C 1005.77 14.69 1041.18 0.06 1078.11 0.00 L 5819.01 0.00 C 5856.19 0.00 5891.85 14.77 5918.14 41.06 C 5944.43 67.35 5959.20 103.01 5959.20 140.20 L 5959.20 6803.33 C 5959.20 6840.51 5944.43 6876.17 5918.14 6902.46 C 5891.85 6928.75 5856.19 6943.52 5819.01 6943.52 Z M 1078.11 4.91 C 1042.60 4.98 1008.56 19.13 983.48 44.26 C 958.39 69.40 944.30 103.46 944.30 138.97 L 944.30 6803.33 C 944.30 6838.84 958.39 6872.90 983.48 6898.03 C 1008.56 6923.17 1042.60 6937.32 1078.11 6937.38 L 5819.01 6937.38 C 5854.54 6937.32 5888.60 6923.17 5913.73 6898.05 C 5938.85 6872.92 5953.00 6838.86 5953.06 6803.33 L 5953.06 138.97 C 5953.00 103.43 5938.85 69.37 5913.73 44.25 C 5888.60 19.12 5854.54 4.98 5819.01 4.91 L 1078.11 4.91 Z" fill="#ebebeb" fill-rule="nonzero" node-id="125" stroke="none" target-height="6943.52" target-width="5021.039" target-x="938.161" target-y="0"></path><path d="M 11130.00 6943.52 L 6388.88 6943.52 C 6351.71 6943.46 6316.09 6928.67 6289.81 6902.39 C 6263.54 6876.11 6248.74 6840.49 6248.68 6803.33 L 6248.68 138.97 C 6249.07 102.02 6264.00 66.71 6290.24 40.70 C 6316.49 14.69 6351.92 0.06 6388.88 0.00 L 11130.00 0.00 C 11166.90 0.13 11202.20 14.79 11228.40 40.80 C 11254.60 66.81 11269.40 102.08 11269.70 138.97 L 11269.70 6803.33 C 11269.70 6840.42 11255.00 6876.01 11228.80 6902.29 C 11202.60 6928.56 11167.10 6943.39 11130.00 6943.52 Z M 6388.88 4.91 C 6353.34 4.98 6319.28 19.12 6294.15 44.25 C 6269.03 69.37 6254.88 103.43 6254.82 138.97 L 6254.82 6803.33 C 6254.88 6838.86 6269.03 6872.92 6294.15 6898.05 C 6319.28 6923.17 6353.34 6937.32 6388.88 6937.38 L 11130.00 6937.38 C 11165.50 6937.32 11199.60 6923.17 11224.70 6898.05 C 11249.90 6872.92 11264.00 6838.86 11264.10 6803.33 L 11264.10 138.97 C 11264.00 103.43 11249.90 69.37 11224.70 44.25 C 11199.60 19.12 11165.50 4.98 11130.00 4.91 L 6388.88 4.91 Z" fill="#ebebeb" fill-rule="nonzero" node-id="127" stroke="none" target-height="6943.52" target-width="5021.02" target-x="6248.68" target-y="0"></path><path d="M 1862.08 3393.68 L 5193.89 3393.68 L 5193.89 507.01 L 1862.08 507.01 L 1862.08 3393.68 Z" fill="#e6e6e6" fill-rule="nonzero" node-id="129" stroke="none" target-height="2886.665" target-width="3331.81" target-x="1862.08" target-y="507.015"></path><path d="M 1787.69 3393.68 L 5119.50 3393.68 L 5119.50 507.01 L 1787.69 507.01 L 1787.69 3393.68 Z" fill="#f5f5f5" fill-rule="nonzero" node-id="131" stroke="none" target-height="2886.665" target-width="3331.81" target-x="1787.69" target-y="507.015"></path><path d="M 4986.67 3290.56 L 4986.67 610.14 L 1920.76 610.14 L 1920.76 3290.56 L 4986.67 3290.56 Z" fill="#fafafa" fill-rule="nonzero" node-id="133" stroke="none" target-height="2680.423" target-width="3065.91" target-x="1920.76" target-y="610.137"></path><path d="M 3757.06 3290.56 L 4312.69 610.14 L 3150.37 610.14 L 2594.98 3290.56 L 3757.06 3290.56 Z" fill="#ffffff" fill-rule="nonzero" node-id="135" stroke="none" target-height="2680.423" target-width="1717.71" target-x="2594.98" target-y="610.137"></path><path d="M 1976.74 3290.81 L 1976.74 610.38 L 1920.76 610.38 L 1920.76 3290.81 L 1976.74 3290.81 Z" fill="#e6e6e6" fill-rule="nonzero" node-id="137" stroke="none" target-height="2680.4292" target-width="55.97998" target-x="1920.76" target-y="610.381"></path><path d="M 1842.69 2810.06 L 5064.50 2810.06 L 5064.50 2671.59 L 1842.69 2671.59 L 1842.69 2810.06 Z" fill="#f5f5f5" fill-rule="nonzero" node-id="139" stroke="none" target-height="138.46997" target-width="3221.81" target-x="1842.69" target-y="2671.59"></path><path d="M 5039.21 7892.49 L 5571.27 7892.49 L 5571.27 5585.26 L 5039.21 5585.26 L 5039.21 7892.49 Z" fill="#f0f0f0" fill-rule="nonzero" node-id="141" stroke="none" target-height="2307.2305" target-width="532.06006" target-x="5039.21" target-y="5585.26"></path><path d="M 1564.75 8038.57 L 5469.38 8038.57 L 5469.38 7892.48 L 1564.75 7892.48 L 1564.75 8038.57 Z" fill="#f0f0f0" fill-rule="nonzero" node-id="143" stroke="none" target-height="146.08984" target-width="3904.63" target-x="1564.75" target-y="7892.48"></path><path d="M 5039.21 5585.02 L 1462.36 5585.02 L 1462.36 7892.24 L 5039.21 7892.24 L 5039.21 5585.02 Z" fill="#f5f5f5" fill-rule="nonzero" node-id="145" stroke="none" target-height="2307.2202" target-width="3576.85" target-x="1462.36" target-y="5585.02"></path><path d="M 4830.27 5869.09 L 1671.55 5869.09 L 1671.55 6625.81 L 4830.27 6625.81 L 4830.27 5869.09 Z" fill="#f0f0f0" fill-rule="nonzero" node-id="147" stroke="none" target-height="756.7202" target-width="3158.72" target-x="1671.55" target-y="5869.09"></path><path d="M 4830.27 6851.70 L 1671.55 6851.70 L 1671.55 7608.41 L 4830.27 7608.41 L 4830.27 6851.70 Z" fill="#f0f0f0" fill-rule="nonzero" node-id="149" stroke="none" target-height="756.70996" target-width="3158.72" target-x="1671.55" target-y="6851.7"></path><path d="M 2399.54 6299.26 L 4102.28 6299.26 C 4116.00 6299.19 4129.14 6293.71 4138.84 6284.01 C 4148.54 6274.31 4154.02 6261.17 4154.08 6247.45 C 4154.02 6233.71 4148.55 6220.54 4138.85 6210.80 C 4129.16 6201.06 4116.02 6195.53 4102.28 6195.40 L 2399.54 6195.40 C 2385.80 6195.53 2372.66 6201.06 2362.96 6210.80 C 2353.27 6220.54 2347.80 6233.71 2347.74 6247.45 C 2347.80 6261.17 2353.28 6274.31 2362.98 6284.01 C 2372.68 6293.71 2385.82 6299.19 2399.54 6299.26 Z" fill="#f5f5f5" fill-rule="nonzero" node-id="151" stroke="none" target-height="103.85986" target-width="1806.3401" target-x="2347.74" target-y="6195.4"></path><path d="M 2399.54 7281.86 L 4102.28 7281.86 C 4116.00 7281.79 4129.14 7276.31 4138.84 7266.61 C 4148.54 7256.91 4154.02 7243.77 4154.08 7230.05 C 4154.08 7216.29 4148.63 7203.09 4138.92 7193.33 C 4129.21 7183.58 4116.04 7178.06 4102.28 7178.00 L 2399.54 7178.00 C 2385.78 7178.06 2372.60 7183.58 2362.89 7193.33 C 2353.19 7203.09 2347.74 7216.29 2347.74 7230.05 C 2347.80 7243.77 2353.28 7256.91 2362.98 7266.61 C 2372.68 7276.31 2385.82 7281.79 2399.54 7281.86 Z" fill="#f5f5f5" fill-rule="nonzero" node-id="153" stroke="none" target-height="103.85986" target-width="1806.3401" target-x="2347.74" target-y="7178"></path><path d="M 10597.50 2015.78 C 10900.40 1932.30 11004.10 1382.57 10238.50 1158.15 C 10407.40 1711.08 10069.30 2160.64 10597.50 2015.78 Z" fill="#ebebeb" fill-rule="nonzero" node-id="155" stroke="none" target-height="1002.48987" target-width="934.7998" target-x="10069.3" target-y="1158.15"></path><path d="M 10664.50 2254.44 C 10903.40 1996.39 10677.50 1412.52 9817.18 1651.17 C 10303.80 2076.92 10248.30 2704.49 10664.50 2254.44 Z" fill="#e0e0e0" fill-rule="nonzero" node-id="157" stroke="none" target-height="1291.97" target-width="1086.2207" target-x="9817.18" target-y="1412.52"></path><path d="M 10428.80 2320.73 C 10228.90 2122.83 10515.20 1434.13 11175.20 1753.31 C 10801.30 2111.54 10778.70 2665.69 10428.80 2320.73 Z" fill="#fafafa" fill-rule="nonzero" node-id="159" stroke="none" target-height="1231.5599" target-width="946.2998" target-x="10228.9" target-y="1434.13"></path><path d="M 10229.40 2706.21 L 10811.10 2706.21 L 10855.00 2312.62 L 10185.70 2312.62 L 10229.40 2706.21 Z" fill="#e6e6e6" fill-rule="nonzero" node-id="161" stroke="none" target-height="393.58984" target-width="669.2998" target-x="10185.7" target-y="2312.62"></path><path d="M 10179.10 2383.09 L 10861.70 2383.09 C 10873.20 2383.09 10884.20 2378.51 10892.40 2370.36 C 10900.50 2362.21 10905.10 2351.16 10905.10 2339.63 C 10905.10 2328.11 10900.50 2317.05 10892.40 2308.90 C 10884.20 2300.75 10873.20 2296.17 10861.70 2296.17 L 10179.10 2296.17 C 10167.60 2296.17 10156.50 2300.75 10148.40 2308.90 C 10140.20 2317.05 10135.60 2328.11 10135.60 2339.63 C 10135.60 2351.16 10140.20 2362.21 10148.40 2370.36 C 10156.50 2378.51 10167.60 2383.09 10179.10 2383.09 Z" fill="#e6e6e6" fill-rule="nonzero" node-id="163" stroke="none" target-height="86.920166" target-width="769.5" target-x="10135.6" target-y="2296.17"></path><path d="M 5335.56 7371.97 L 5335.56 6705.36 L 5890.70 6705.36 L 5890.70 6039.00 L 6446.08 6039.00 L 6446.08 5372.39 L 7001.22 5372.39 L 7001.22 4705.78 L 7556.60 4705.78 L 7556.60 4039.42 L 8111.74 4039.42 L 8111.74 3372.81 L 8667.13 3372.81 L 8667.13 2706.21 L 9222.51 2706.21 L 12276.40 2706.21 L 12276.40 8038.57 L 5335.56 8038.57 L 4780.18 8038.57 L 4780.18 7371.97 L 5335.56 7371.97 Z" fill="#fafafa" fill-rule="nonzero" node-id="165" stroke="none" target-height="5332.36" target-width="7496.22" target-x="4780.18" target-y="2706.21"></path><path d="M 8389.44 7371.97 L 8389.44 6705.36 L 8944.82 6705.36 L 8944.82 6039.00 L 9499.96 6039.00 L 9499.96 5372.39 L 10055.30 5372.39 L 10055.30 4705.78 L 10610.50 4705.78 L 10610.50 4039.42 L 11165.90 4039.42 L 11165.90 3372.81 L 11721.00 3372.81 L 11721.00 2706.21 L 12276.40 2706.21 L 12276.40 3372.81 L 12276.40 8038.57 L 8389.44 8038.57 L 7834.30 8038.57 L 7834.30 7371.97 L 8389.44 7371.97 Z" fill="#e0e0e0" fill-rule="nonzero" node-id="167" stroke="none" target-height="5332.36" target-width="4442.1006" target-x="7834.3" target-y="2706.21"></path><path d="M 7834.30 7371.97 L 4747.52 7371.97 L 4747.52 7571.83 L 7834.30 7571.83 L 7834.30 7371.97 Z" fill="#ebebeb" fill-rule="nonzero" node-id="169" stroke="none" target-height="199.85986" target-width="3086.7798" target-x="4747.52" target-y="7371.97"></path><path d="M 8389.68 6705.36 L 5302.91 6705.36 L 5302.91 6905.22 L 8389.68 6905.22 L 8389.68 6705.36 Z" fill="#ebebeb" fill-rule="nonzero" node-id="171" stroke="none" target-height="199.86035" target-width="3086.7695" target-x="5302.91" target-y="6705.36"></path><path d="M 8944.82 6039.00 L 5858.04 6039.00 L 5858.04 6238.86 L 8944.82 6238.86 L 8944.82 6039.00 Z" fill="#ebebeb" fill-rule="nonzero" node-id="173" stroke="none" target-height="199.85986" target-width="3086.7803" target-x="5858.04" target-y="6039"></path><path d="M 9500.20 5372.39 L 6413.43 5372.39 L 6413.43 5572.25 L 9500.20 5572.25 L 9500.20 5372.39 Z" fill="#ebebeb" fill-rule="nonzero" node-id="175" stroke="none" target-height="199.85986" target-width="3086.77" target-x="6413.43" target-y="5372.39"></path><path d="M 10055.30 4705.78 L 6968.57 4705.78 L 6968.57 4905.64 L 10055.30 4905.64 L 10055.30 4705.78 Z" fill="#ebebeb" fill-rule="nonzero" node-id="177" stroke="none" target-height="199.86035" target-width="3086.73" target-x="6968.57" target-y="4705.78"></path><path d="M 10610.70 4039.42 L 7523.95 4039.42 L 7523.95 4239.28 L 10610.70 4239.28 L 10610.70 4039.42 Z" fill="#ebebeb" fill-rule="nonzero" node-id="179" stroke="none" target-height="199.85986" target-width="3086.75" target-x="7523.95" target-y="4039.42"></path><path d="M 11165.90 3372.81 L 8079.09 3372.81 L 8079.09 3572.67 L 11165.90 3572.67 L 11165.90 3372.81 Z" fill="#ebebeb" fill-rule="nonzero" node-id="181" stroke="none" target-height="199.85986" target-width="3086.8105" target-x="8079.09" target-y="3372.81"></path><path d="M 11721.20 2706.21 L 8634.47 2706.21 L 8634.47 2906.06 L 11721.20 2906.06 L 11721.20 2706.21 Z" fill="#ebebeb" fill-rule="nonzero" node-id="183" stroke="none" target-height="199.8501" target-width="3086.7305" target-x="8634.47" target-y="2706.21"></path><path d="M 6138.19 9147.38 C 8767.36 9147.38 10898.70 9022.94 10898.70 8869.44 C 10898.70 8715.94 8767.36 8591.50 6138.19 8591.50 C 3509.02 8591.50 1377.66 8715.94 1377.66 8869.44 C 1377.66 9022.94 3509.02 9147.38 6138.19 9147.38 Z" fill="#f5f5f5" fill-rule="nonzero" node-id="185" stroke="none" target-height="555.8799" target-width="9521.04" target-x="1377.66" target-y="8591.5"></path><path d="M 8217.81 2544.40 C 8213.39 2618.06 8204.80 2685.58 8195.22 2755.56 C 8185.65 2825.53 8172.63 2894.03 8157.90 2962.78 C 8129.18 3101.92 8087.67 3238.11 8033.91 3369.62 L 8011.57 3418.73 L 8006.17 3431.00 L 8004.20 3437.39 L 8000.27 3445.24 C 7992.77 3460.66 7983.27 3475.02 7972.04 3487.97 C 7958.65 3503.02 7942.69 3515.58 7924.90 3525.04 C 7907.43 3534.20 7888.48 3540.19 7868.92 3542.72 C 7838.88 3545.93 7808.51 3542.75 7779.79 3533.39 C 7739.10 3519.50 7700.71 3499.64 7665.86 3474.46 C 7635.38 3452.97 7606.27 3429.60 7578.70 3404.49 C 7475.36 3308.67 7382.37 3202.26 7301.26 3087.02 L 7382.53 3018.03 C 7431.63 3063.45 7480.74 3109.36 7529.84 3152.82 C 7578.66 3196.27 7629.63 3237.24 7682.56 3275.58 C 7707.47 3293.41 7733.38 3309.80 7760.15 3324.69 C 7781.73 3337.78 7805.03 3347.78 7829.39 3354.40 C 7837.73 3356.12 7843.63 3354.40 7840.93 3354.40 C 7835.14 3355.04 7829.71 3357.54 7825.46 3361.52 C 7823.98 3361.52 7823.98 3361.52 7825.46 3361.52 L 7833.31 3341.14 L 7850.50 3296.45 C 7893.09 3173.43 7926.33 3047.36 7949.94 2919.32 C 7962.95 2854.99 7972.04 2789.44 7981.86 2724.37 C 7991.68 2659.31 7998.55 2592.28 8004.20 2530.16 L 8217.81 2544.40 Z" fill="#ffc3bd" fill-rule="nonzero" node-id="187" stroke="none" target-height="1015.77" target-width="916.5498" target-x="7301.26" target-y="2530.16"></path><path d="M 8069.02 2274.08 C 7977.44 2297.40 7913.36 2674.04 7913.36 2674.04 L 8165.51 2845.91 C 8165.51 2845.91 8407.36 2466.08 8337.38 2365.41 C 8263.72 2260.08 8202.59 2240.19 8069.02 2274.08 Z" fill="#429cfd" fill-rule="nonzero" node-id="189" stroke="none" target-height="605.72" target-width="494.0005" target-x="7913.36" target-y="2240.19"></path><path d="M 8069.02 2274.08 C 7977.44 2297.40 7913.36 2674.04 7913.36 2674.04 L 8165.51 2845.91 C 8165.51 2845.91 8407.36 2466.08 8337.38 2365.41 C 8263.72 2260.08 8202.59 2240.19 8069.02 2274.08 Z" fill="#429cfd" fill-rule="nonzero" node-id="191" stroke="none" target-height="605.72" target-width="494.0005" target-x="7913.36" target-y="2240.19"></path><g node-id="361"><path d="M 8069.02 2274.08 C 7977.44 2297.40 7913.36 2674.04 7913.36 2674.04 L 8165.51 2845.91 C 8165.51 2845.91 8407.36 2466.08 8337.38 2365.41 C 8263.72 2260.08 8202.59 2240.19 8069.02 2274.08 Z" fill="#000000" fill-opacity="0.4" fill-rule="nonzero" group-id="1" node-id="195" stroke="none" target-height="605.72" target-width="494.0005" target-x="7913.36" target-y="2240.19"></path></g><g node-id="362"><path d="M 8077.12 2358.29 L 8006.90 2737.63 L 8148.57 2833.88 L 8077.12 2358.29 Z" fill="#000000" fill-opacity="0.3" fill-rule="nonzero" group-id="2" node-id="200" stroke="none" target-height="475.58984" target-width="141.66992" target-x="8006.9" target-y="2358.29"></path></g><path d="M 7386.70 3002.56 L 7267.62 2813.01 L 7199.61 3028.34 C 7199.61 3028.34 7297.82 3131.46 7386.94 3106.91 L 7386.70 3002.56 Z" fill="#ffc3bd" fill-rule="nonzero" node-id="203" stroke="none" target-height="318.44995" target-width="187.33008" target-x="7199.61" target-y="2813.01"></path><path d="M 7090.84 2750.40 L 7043.70 2933.56 L 7198.63 3028.34 L 7266.64 2813.01 L 7090.84 2750.40 Z" fill="#ffc3bd" fill-rule="nonzero" node-id="205" stroke="none" target-height="277.9402" target-width="222.93994" target-x="7043.7" target-y="2750.4"></path><path d="M 8564.00 8611.88 L 8342.05 8611.88 L 8327.07 8097.75 L 8549.27 8097.75 L 8564.00 8611.88 Z" fill="#ffc3bd" fill-rule="nonzero" node-id="207" stroke="none" target-height="514.1299" target-width="236.92969" target-x="8327.07" target-y="8097.75"></path><path d="M 10523.10 7580.66 L 10353.90 7724.54 L 9966.70 7378.84 L 10135.90 7235.21 L 10523.10 7580.66 Z" fill="#ffc3bd" fill-rule="nonzero" node-id="209" stroke="none" target-height="489.33008" target-width="556.3994" target-x="9966.7" target-y="7235.21"></path><path d="M 10307.50 7707.36 L 10471.80 7519.28 C 10474.60 7516.04 10478.40 7513.93 10482.70 7513.35 C 10486.90 7512.76 10491.30 7513.73 10494.80 7516.09 L 10662.00 7624.37 C 10666.20 7627.23 10669.60 7630.94 10672.20 7635.24 C 10674.80 7639.54 10676.50 7644.35 10677.10 7649.33 C 10677.70 7654.32 10677.20 7659.37 10675.70 7664.17 C 10674.20 7668.96 10671.70 7673.39 10668.40 7677.16 C 10610.00 7741.73 10578.60 7769.97 10506.40 7852.46 C 10462.20 7903.29 10402.50 7982.35 10341.10 8052.32 C 10279.80 8122.30 10207.10 8065.83 10226.50 8030.96 C 10312.70 7875.30 10292.00 7820.79 10293.50 7744.19 C 10293.70 7730.65 10298.70 7717.62 10307.50 7707.36 Z" fill="#263238" fill-rule="nonzero" node-id="211" stroke="none" target-height="609.54004" target-width="470.6006" target-x="10207.1" target-y="7512.76"></path><path d="M 8334.44 8586.35 L 8583.89 8586.35 C 8588.18 8586.30 8592.35 8587.83 8595.60 8590.63 C 8598.85 8593.43 8600.97 8597.32 8601.57 8601.57 L 8630.05 8797.99 C 8630.85 8803.18 8630.49 8808.49 8629.00 8813.52 C 8627.51 8818.56 8624.93 8823.20 8621.43 8827.12 C 8617.93 8831.04 8613.61 8834.14 8608.78 8836.19 C 8603.94 8838.24 8598.72 8839.20 8593.47 8838.99 C 8506.55 8837.52 8464.57 8832.37 8354.81 8832.37 C 8287.29 8832.37 8147.83 8839.49 8054.53 8839.49 C 7961.23 8839.49 7956.32 8747.17 7995.36 8739.06 C 8169.20 8701.50 8237.70 8649.94 8296.38 8600.59 C 8306.93 8591.40 8320.45 8586.34 8334.44 8586.35 Z" fill="#263238" fill-rule="nonzero" node-id="213" stroke="none" target-height="253.19043" target-width="674.5298" target-x="7956.32" target-y="8586.3"></path><path d="M 8327.32 8097.99 L 8334.93 8362.92 L 8556.88 8362.92 L 8549.27 8097.99 L 8327.32 8097.99 Z" fill="#000000" fill-opacity="0.2" fill-rule="nonzero" group-id="3" node-id="217" stroke="none" target-height="264.9297" target-width="229.55957" target-x="8327.32" target-y="8097.99"></path><path d="M 10136.10 7235.21 L 9966.70 7378.84 L 10166.60 7557.09 L 10335.70 7413.21 L 10136.10 7235.21 Z" fill="#000000" fill-opacity="0.2" fill-rule="nonzero" group-id="4" node-id="222" stroke="none" target-height="321.87988" target-width="369" target-x="9966.7" target-y="7235.21"></path><path d="M 8069.02 2274.08 C 8069.02 2274.08 7963.20 2311.40 8175.09 3614.17 L 9076.67 3614.17 C 9061.69 3247.10 9061.20 3020.73 9236.50 2267.69 C 9110.29 2241.67 8982.37 2224.77 8853.73 2217.11 C 8717.39 2207.40 8580.53 2207.40 8444.19 2217.11 C 8268.39 2234.30 8069.02 2274.08 8069.02 2274.08 Z" fill="#429cfd" fill-rule="nonzero" node-id="225" stroke="none" target-height="1406.77" target-width="1273.2998" target-x="7963.2" target-y="2207.4"></path><path d="M 8069.02 2274.08 C 8069.02 2274.08 7963.20 2311.40 8175.09 3614.17 L 9076.67 3614.17 C 9061.69 3247.10 9061.20 3020.73 9236.50 2267.69 C 9110.29 2241.67 8982.37 2224.77 8853.73 2217.11 C 8717.39 2207.40 8580.53 2207.40 8444.19 2217.11 C 8268.39 2234.30 8069.02 2274.08 8069.02 2274.08 Z" fill="#000000" fill-opacity="0.4" fill-rule="nonzero" group-id="5" node-id="229" stroke="none" target-height="1406.77" target-width="1273.2998" target-x="7963.2" target-y="2207.4"></path><path d="M 8853.73 2217.11 C 8717.39 2207.40 8580.53 2207.40 8444.19 2217.11 C 8422.09 2219.08 8399.50 2221.53 8377.16 2224.23 C 8367.91 2238.19 8362.00 2254.08 8359.87 2270.68 C 8357.74 2287.29 8359.46 2304.15 8364.88 2319.99 C 8393.61 2391.44 8497.22 2399.79 8572.84 2399.79 C 8852.01 2399.79 8899.15 2236.76 8901.11 2229.88 L 8903.81 2220.06 C 8888.10 2219.08 8870.42 2217.85 8853.73 2217.11 Z" fill="#ffffff" fill-rule="nonzero" node-id="232" stroke="none" target-height="192.39014" target-width="546.06934" target-x="8357.74" target-y="2207.4"></path><path d="M 8814.44 1756.26 C 8788.42 1887.86 8762.88 2129.21 8854.95 2217.11 C 8854.95 2217.11 8818.86 2350.93 8574.07 2350.93 C 8303.99 2350.93 8445.41 2217.36 8445.41 2217.36 C 8592.73 2182.25 8588.56 2073.23 8563.02 1971.83 L 8814.44 1756.26 Z" fill="#ffc3bd" fill-rule="nonzero" node-id="234" stroke="none" target-height="594.6699" target-width="550.95996" target-x="8303.99" target-y="1756.26"></path><path d="M 8710.58 1843.67 L 8561.79 1970.60 C 8568.20 1994.73 8572.47 2019.38 8574.56 2044.26 C 8630.54 2036.16 8707.64 1974.53 8713.78 1915.85 C 8717.22 1891.80 8716.14 1867.32 8710.58 1843.67 Z" fill="#000000" fill-opacity="0.2" fill-rule="nonzero" group-id="6" node-id="238" stroke="none" target-height="200.58997" target-width="155.42969" target-x="8561.79" target-y="1843.67"></path><path d="M 8660.00 1039.81 C 8637.17 962.47 8618.02 840.68 8755.51 785.69 C 8701.74 719.88 8688.73 596.14 8755.51 522.73 C 8822.30 449.31 8922.47 476.32 8922.47 476.32 C 8922.47 476.32 8951.94 296.84 9170.21 329.00 C 9388.48 361.17 9291.26 504.80 9291.26 504.80 C 9291.26 504.80 9589.08 445.88 9608.97 725.78 C 9628.86 1005.68 9457.97 971.30 9457.97 971.30 C 9457.97 971.30 9590.80 1082.77 9517.14 1205.29 C 9443.48 1327.81 9273.33 1285.58 9273.33 1285.58 C 9273.33 1285.58 9193.29 1502.14 9004.72 1378.88 C 8816.16 1255.63 8660.00 1039.81 8660.00 1039.81 Z" fill="#263238" fill-rule="nonzero" node-id="241" stroke="none" target-height="1205.2991" target-width="1010.8408" target-x="8618.02" target-y="296.841"></path><path d="M 8217.81 1203.09 C 8144.15 1298.35 8176.56 1406.14 8242.36 1448.61 C 8400.73 1549.77 8629.80 1125.50 8570.14 1074.67 C 8510.48 1023.85 8291.47 1107.57 8217.81 1203.09 Z" fill="#263238" fill-rule="nonzero" node-id="243" stroke="none" target-height="525.92004" target-width="485.6499" target-x="8144.15" target-y="1023.85"></path><path d="M 8882.94 976.22 C 8778.84 934.23 8673.26 978.18 8640.36 1041.53 C 8560.08 1195.96 8924.68 1474.15 9030.26 1281.16 C 9092.87 1166.50 8990.24 1019.43 8882.94 976.22 Z" fill="#429cfd" fill-rule="nonzero" node-id="245" stroke="none" target-height="539.918" target-width="532.79004" target-x="8560.08" target-y="934.232"></path><path d="M 8839.00 1448.61 C 8846.61 1669.59 8854.46 1761.90 8754.53 1884.91 C 8604.52 2069.80 8332.23 2031.00 8259.06 1817.39 C 8193.26 1625.15 8192.03 1297.37 8398.03 1189.83 C 8443.31 1165.87 8493.97 1153.89 8545.18 1155.02 C 8596.40 1156.15 8646.47 1170.36 8690.66 1196.29 C 8734.84 1222.21 8771.66 1259.01 8797.62 1303.17 C 8823.58 1347.33 8837.83 1397.40 8839.00 1448.61 Z" fill="#ffc3bd" fill-rule="nonzero" node-id="247" stroke="none" target-height="915.91003" target-width="662.4297" target-x="8192.03" target-y="1153.89"></path><path d="M 8805.85 1564.26 C 8707.64 1527.67 8683.08 1413.01 8698.80 1367.83 C 8649.69 1365.87 8542.40 1348.19 8502.38 1287.30 C 8425.77 1336.41 8263.97 1385.51 8246.54 1303.75 C 8229.10 1221.99 8473.16 1011.82 8657.80 995.62 C 8877.30 976.46 9093.85 1192.04 9038.12 1398.53 C 8982.38 1605.01 8805.85 1564.26 8805.85 1564.26 Z" fill="#263238" fill-rule="nonzero" node-id="249" stroke="none" target-height="628.546" target-width="864.75" target-x="8229.1" target-y="976.464"></path><path d="M 8176.07 3614.17 C 8176.07 3614.17 8001.01 5324.27 8015.49 6001.43 C 8030.72 6705.60 8288.77 8311.60 8288.77 8311.60 L 8588.80 8311.60 C 8588.80 8311.60 8541.41 6746.61 8567.93 6055.20 C 8596.90 5301.19 8836.29 3614.17 8836.29 3614.17 L 8176.07 3614.17 Z" fill="#263238" fill-rule="nonzero" node-id="251" stroke="none" target-height="4697.4297" target-width="835.2803" target-x="8001.01" target-y="3614.17"></path><path d="M 8613.85 8322.41 L 8261.76 8322.41 L 8235.73 8210.20 L 8630.30 8196.45 L 8613.85 8322.41 Z" fill="#429cfd" fill-rule="nonzero" node-id="253" stroke="none" target-height="125.95996" target-width="394.56934" target-x="8235.73" target-y="8196.45"></path><path d="M 8564.00 4039.67 C 8343.03 4485.05 8519.56 5297.75 8597.89 5600.24 C 8637.91 5146.01 8705.67 4590.88 8758.46 4183.30 C 8725.07 3952.99 8667.13 3834.16 8564.00 4039.67 Z" fill="#000000" fill-opacity="0.2" fill-rule="nonzero" group-id="7" node-id="257" stroke="none" target-height="1766.0803" target-width="415.4297" target-x="8343.03" target-y="3834.16"></path><path d="M 8413.25 3614.17 C 8413.25 3614.17 8617.53 5392.03 8771.72 5962.88 C 8954.88 6640.54 10092.40 7552.68 10092.40 7552.68 L 10323.20 7356.25 C 10323.20 7356.25 9498.73 6365.30 9358.53 6008.31 C 9059.72 5247.17 9315.56 4110.87 9076.67 3613.68 L 8413.25 3614.17 Z" fill="#263238" fill-rule="nonzero" node-id="260" stroke="none" target-height="3939.0002" target-width="1909.9502" target-x="8413.25" target-y="3613.68"></path><path d="M 10360.00 7346.19 L 10073.80 7589.26 L 9966.70 7525.18 L 10290.60 7223.91 L 10360.00 7346.19 Z" fill="#429cfd" fill-rule="nonzero" node-id="262" stroke="none" target-height="365.3496" target-width="393.2998" target-x="9966.7" target-y="7223.91"></path><path d="M 8512.20 1540.93 C 8513.92 1558.85 8505.81 1574.08 8494.27 1575.30 C 8482.73 1576.53 8471.68 1562.78 8469.72 1545.10 C 8467.76 1527.43 8476.10 1511.71 8487.89 1510.73 C 8499.68 1509.75 8510.48 1522.27 8512.20 1540.93 Z" fill="#263238" fill-rule="nonzero" node-id="264" stroke="none" target-height="66.78003" target-width="46.160156" target-x="8467.76" target-y="1509.75"></path><path d="M 8310.86 1560.33 C 8312.58 1578.01 8304.48 1593.47 8292.70 1594.70 C 8280.91 1595.93 8270.35 1582.18 8268.14 1564.26 C 8265.93 1546.33 8274.53 1531.11 8286.07 1530.13 C 8297.61 1529.15 8309.15 1542.40 8310.86 1560.33 Z" fill="#263238" fill-rule="nonzero" node-id="266" stroke="none" target-height="66.78003" target-width="46.65039" target-x="8265.93" target-y="1529.15"></path><path d="M 8291.71 1530.62 L 8247.77 1522.27 C 8247.77 1522.27 8274.28 1553.70 8291.71 1530.62 Z" fill="#263238" fill-rule="nonzero" node-id="268" stroke="none" target-height="31.429932" target-width="43.94043" target-x="8247.77" target-y="1522.27"></path><path d="M 8366.85 1585.86 C 8354.89 1628.02 8337.21 1668.33 8314.30 1705.68 C 8324.04 1711.28 8334.88 1714.71 8346.07 1715.73 C 8357.26 1716.74 8368.53 1715.33 8379.12 1711.57 L 8366.85 1585.86 Z" fill="#ed847e" fill-rule="nonzero" node-id="270" stroke="none" target-height="130.88" target-width="64.82031" target-x="8314.3" target-y="1585.86"></path><path d="M 8478.07 1770.25 C 8468.34 1772.92 8458.40 1774.72 8448.36 1775.65 C 8447.68 1775.72 8447.00 1775.66 8446.35 1775.46 C 8445.69 1775.26 8445.09 1774.93 8444.56 1774.50 C 8444.04 1774.07 8443.60 1773.53 8443.29 1772.93 C 8442.97 1772.33 8442.77 1771.67 8442.71 1770.99 C 8442.57 1769.59 8442.98 1768.20 8443.85 1767.10 C 8444.72 1766.00 8445.99 1765.28 8447.38 1765.10 C 8469.60 1763.46 8491.13 1756.63 8510.24 1745.16 C 8529.34 1733.69 8545.49 1717.90 8557.37 1699.05 C 8557.66 1698.40 8558.07 1697.82 8558.60 1697.35 C 8559.13 1696.87 8559.75 1696.52 8560.43 1696.31 C 8561.10 1696.10 8561.82 1696.04 8562.52 1696.13 C 8563.22 1696.22 8563.90 1696.46 8564.49 1696.84 C 8565.71 1697.52 8566.61 1698.63 8567.03 1699.96 C 8567.44 1701.28 8567.32 1702.72 8566.70 1703.96 C 8546.90 1736.74 8515.11 1760.52 8478.07 1770.25 Z" fill="#263238" fill-rule="nonzero" node-id="272" stroke="none" target-height="79.67993" target-width="124.87012" target-x="8442.57" target-y="1696.04"></path><path d="M 8890.56 1601.08 C 8885.18 1643.34 8863.29 1681.74 8829.66 1707.89 C 8784.73 1742.26 8741.52 1707.89 8736.36 1654.12 C 8731.95 1605.01 8749.62 1531.36 8803.15 1517.11 C 8814.83 1514.74 8826.91 1515.23 8838.36 1518.55 C 8849.81 1521.87 8860.28 1527.91 8868.88 1536.17 C 8877.47 1544.43 8883.94 1554.65 8887.71 1565.96 C 8891.49 1577.26 8892.46 1589.32 8890.56 1601.08 Z" fill="#ffc3bd" fill-rule="nonzero" node-id="274" stroke="none" target-height="227.52002" target-width="160.50977" target-x="8731.95" target-y="1514.74"></path><path d="M 8533.80 1414.73 C 8532.44 1415.08 8531.02 1415.14 8529.63 1414.93 C 8528.24 1414.72 8526.90 1414.24 8525.70 1413.50 C 8514.57 1406.40 8501.92 1402.03 8488.77 1400.75 C 8475.63 1399.47 8462.37 1401.31 8450.08 1406.14 C 8447.52 1407.27 8444.63 1407.39 8441.99 1406.48 C 8439.35 1405.57 8437.15 1403.69 8435.84 1401.23 C 8434.65 1398.72 8434.50 1395.84 8435.42 1393.22 C 8436.34 1390.60 8438.25 1388.45 8440.75 1387.23 C 8456.21 1380.84 8472.98 1378.27 8489.64 1379.72 C 8506.31 1381.18 8522.38 1386.61 8536.50 1395.58 C 8537.67 1396.28 8538.68 1397.21 8539.49 1398.31 C 8540.29 1399.41 8540.87 1400.66 8541.19 1401.98 C 8541.51 1403.31 8541.56 1404.68 8541.35 1406.03 C 8541.14 1407.37 8540.66 1408.66 8539.94 1409.82 C 8538.58 1412.17 8536.39 1413.92 8533.80 1414.73 Z" fill="#263238" fill-rule="nonzero" node-id="276" stroke="none" target-height="36.869995" target-width="107.05957" target-x="8434.5" target-y="1378.27"></path><path d="M 8212.16 1475.87 C 8209.63 1476.83 8206.84 1476.83 8204.31 1475.87 C 8201.92 1474.47 8200.16 1472.22 8199.39 1469.57 C 8198.61 1466.93 8198.88 1464.08 8200.13 1461.62 C 8207.62 1446.68 8218.61 1433.77 8232.16 1423.98 C 8245.71 1414.19 8261.42 1407.82 8277.96 1405.40 C 8279.34 1405.26 8280.73 1405.41 8282.05 1405.82 C 8283.36 1406.23 8284.59 1406.90 8285.64 1407.80 C 8286.69 1408.69 8287.56 1409.78 8288.18 1411.02 C 8288.80 1412.25 8289.17 1413.60 8289.26 1414.97 C 8289.46 1417.74 8288.57 1420.47 8286.78 1422.58 C 8284.99 1424.69 8282.44 1426.02 8279.68 1426.27 C 8266.66 1428.46 8254.33 1433.69 8243.71 1441.54 C 8233.09 1449.39 8224.47 1459.64 8218.55 1471.45 C 8217.85 1472.59 8216.92 1473.57 8215.82 1474.33 C 8214.72 1475.09 8213.48 1475.62 8212.16 1475.87 Z" fill="#263238" fill-rule="nonzero" node-id="278" stroke="none" target-height="71.56995" target-width="90.84961" target-x="8198.61" target-y="1405.26"></path><path d="M 9328.58 2507.08 C 9378.64 2629.55 9421.84 2754.72 9457.97 2882.00 C 9496.27 3010.39 9523.54 3141.82 9539.49 3274.85 C 9543.66 3308.73 9544.89 3344.33 9546.36 3379.44 L 9546.36 3399.33 C 9546.36 3406.45 9545.13 3413.82 9544.15 3420.20 C 9542.11 3432.47 9539.32 3444.60 9535.80 3456.54 C 9529.41 3476.96 9521.19 3496.76 9511.25 3515.71 C 9477.21 3578.66 9435.47 3637.13 9387.01 3689.79 C 9297.39 3788.24 9198.75 3878.09 9092.38 3958.15 L 9021.42 3879.34 C 9103.18 3783.83 9185.68 3685.86 9255.66 3584.70 C 9289.46 3538.80 9318.27 3489.41 9341.59 3437.39 C 9345.59 3427.32 9348.87 3416.98 9351.41 3406.45 C 9352.08 3402.88 9352.49 3399.27 9352.64 3395.65 C 9352.77 3394.59 9352.77 3393.51 9352.64 3392.45 L 9352.64 3389.02 C 9349.45 3360.04 9347.24 3331.07 9341.84 3301.36 C 9320.71 3180.07 9291.26 3060.38 9253.69 2943.14 C 9216.13 2824.30 9174.14 2703.75 9130.93 2588.84 L 9328.58 2507.08 Z" fill="#ffc3bd" fill-rule="nonzero" node-id="280" stroke="none" target-height="1451.0698" target-width="524.9404" target-x="9021.42" target-y="2507.08"></path><path d="M 9236.50 2267.69 C 9326.86 2295.19 9435.38 2606.27 9435.38 2606.27 L 9084.52 2856.71 C 9084.52 2856.71 8956.60 2597.19 8994.66 2480.32 C 9035.42 2358.78 9133.63 2236.26 9236.50 2267.69 Z" fill="#429cfd" fill-rule="nonzero" node-id="282" stroke="none" target-height="620.44995" target-width="478.78027" target-x="8956.6" target-y="2236.26"></path><path d="M 9236.50 2267.69 C 9326.86 2295.19 9435.38 2606.27 9435.38 2606.27 L 9084.52 2856.71 C 9084.52 2856.71 8956.60 2597.19 8994.66 2480.32 C 9035.42 2358.78 9133.63 2236.26 9236.50 2267.69 Z" fill="#000000" fill-opacity="0.4" fill-rule="nonzero" group-id="8" node-id="286" stroke="none" target-height="620.44995" target-width="478.78027" target-x="8956.6" target-y="2236.26"></path><path d="M 10246.90 7814.41 C 10242.30 7814.29 10237.90 7813.14 10233.80 7811.06 C 10229.80 7808.98 10226.30 7806.01 10223.50 7802.38 C 10221.30 7800.08 10219.70 7797.24 10218.90 7794.13 C 10218.20 7791.03 10218.20 7787.77 10219.10 7784.70 C 10227.50 7757.69 10304.50 7735.59 10313.40 7733.14 C 10314.40 7732.79 10315.40 7732.77 10316.40 7733.08 C 10317.40 7733.39 10318.20 7734.02 10318.80 7734.86 C 10319.30 7735.70 10319.60 7736.68 10319.60 7737.68 C 10319.60 7738.68 10319.30 7739.66 10318.80 7740.50 C 10305.00 7766.78 10277.80 7810.97 10249.80 7814.16 L 10246.90 7814.41 Z M 10303.80 7746.89 C 10273.40 7756.71 10233.60 7773.65 10230.20 7787.89 C 10229.80 7789.24 10229.80 7790.66 10230.20 7792.01 C 10230.60 7793.35 10231.30 7794.56 10232.40 7795.50 C 10234.30 7798.32 10237.00 7800.57 10240.10 7802.03 C 10243.20 7803.50 10246.60 7804.12 10250.00 7803.85 C 10264.30 7802.13 10284.20 7781.02 10303.80 7746.89 Z" fill="#429cfd" fill-rule="nonzero" node-id="289" stroke="none" target-height="81.64014" target-width="101.399414" target-x="10218.2" target-y="7732.77"></path><path d="M 10279.50 7747.87 C 10256.50 7750.21 10233.50 7743.71 10215.20 7729.70 C 10212.60 7726.45 10211.20 7722.43 10211.20 7718.28 C 10211.20 7714.14 10212.60 7710.12 10215.20 7706.87 C 10217.40 7703.46 10220.30 7700.59 10223.70 7698.47 C 10227.20 7696.34 10231.00 7695.02 10235.10 7694.59 C 10267.00 7690.66 10315.40 7732.40 10317.30 7734.12 C 10318.00 7734.70 10318.60 7735.46 10318.90 7736.33 C 10319.20 7737.20 10319.20 7738.13 10319.00 7739.03 C 10318.90 7739.99 10318.60 7740.89 10317.90 7741.63 C 10317.30 7742.38 10316.50 7742.92 10315.60 7743.20 C 10303.90 7746.54 10291.70 7748.12 10279.50 7747.87 Z M 10240.50 7704.90 L 10237.00 7704.90 C 10234.50 7705.19 10232.10 7706.01 10229.90 7707.33 C 10227.80 7708.64 10225.90 7710.41 10224.50 7712.51 C 10220.80 7718.16 10222.10 7721.11 10224.50 7723.07 C 10234.10 7735.59 10277.80 7740.26 10304.30 7735.35 C 10286.20 7719.64 10264.10 7709.12 10240.50 7704.90 Z" fill="#429cfd" fill-rule="nonzero" node-id="291" stroke="none" target-height="59.549805" target-width="108" target-x="10211.2" target-y="7690.66"></path><path d="M 8250.96 8625.14 C 8231.99 8626.86 8213.00 8622.01 8197.19 8611.39 C 8193.81 8608.31 8191.19 8604.49 8189.53 8600.23 C 8187.87 8595.97 8187.21 8591.39 8187.61 8586.84 C 8187.81 8583.93 8188.75 8581.11 8190.34 8578.66 C 8191.93 8576.21 8194.12 8574.21 8196.69 8572.84 C 8223.95 8557.86 8312.34 8603.04 8322.40 8608.44 C 8323.34 8608.97 8324.10 8609.77 8324.58 8610.73 C 8325.06 8611.69 8325.24 8612.78 8325.11 8613.84 C 8324.97 8614.93 8324.49 8615.94 8323.74 8616.74 C 8322.99 8617.53 8322.01 8618.07 8320.93 8618.26 C 8297.87 8622.69 8274.44 8624.99 8250.96 8625.14 Z M 8211.43 8579.23 C 8208.04 8579.01 8204.65 8579.69 8201.61 8581.19 C 8200.55 8581.71 8199.67 8582.51 8199.06 8583.51 C 8198.45 8584.51 8198.14 8585.67 8198.17 8586.84 C 8197.76 8589.91 8198.11 8593.03 8199.18 8595.94 C 8200.25 8598.85 8202.01 8601.45 8204.31 8603.53 C 8217.81 8615.81 8253.41 8617.77 8302.52 8609.67 C 8274.11 8594.40 8243.30 8584.10 8211.43 8579.23 Z" fill="#429cfd" fill-rule="nonzero" node-id="293" stroke="none" target-height="69" target-width="138.03027" target-x="8187.21" target-y="8557.86"></path><path d="M 8319.95 8618.02 L 8317.74 8618.02 C 8291.22 8605.99 8238.93 8558.11 8244.08 8533.07 C 8244.08 8527.18 8249.24 8519.56 8263.72 8518.09 C 8268.96 8517.54 8274.24 8518.07 8279.27 8519.63 C 8284.29 8521.19 8288.94 8523.76 8292.94 8527.17 C 8320.69 8550.50 8325.84 8610.16 8326.09 8612.86 C 8326.16 8613.77 8326.00 8614.67 8325.61 8615.49 C 8325.22 8616.31 8324.62 8617.01 8323.88 8617.53 C 8323.30 8617.89 8322.65 8618.13 8321.97 8618.21 C 8321.29 8618.30 8320.60 8618.23 8319.95 8618.02 Z M 8266.92 8527.91 L 8263.97 8527.91 C 8254.15 8527.91 8253.66 8532.82 8253.41 8534.05 C 8250.96 8549.03 8286.56 8586.84 8313.57 8603.04 C 8311.36 8577.82 8301.42 8553.89 8285.08 8534.54 C 8280.11 8529.98 8273.66 8527.36 8266.92 8527.17 L 8266.92 8527.91 Z" fill="#429cfd" fill-rule="nonzero" node-id="295" stroke="none" target-height="100.759766" target-width="87.23047" target-x="8238.93" target-y="8517.54"></path><path d="M 9090.17 3560.15 L 9113.25 3640.93 C 9116.44 3647.07 9109.07 3653.45 9098.52 3653.45 L 8170.67 3653.45 C 8162.57 3653.45 8155.69 3649.52 8155.20 3644.37 L 8147.10 3563.83 C 8147.10 3558.19 8153.48 3553.52 8162.57 3553.52 L 9075.68 3553.52 C 9078.46 3553.28 9081.26 3553.77 9083.80 3554.93 C 9086.33 3556.09 9088.53 3557.89 9090.17 3560.15 Z" fill="#429cfd" fill-rule="nonzero" node-id="297" stroke="none" target-height="100.16992" target-width="969.34033" target-x="8147.1" target-y="3553.28"></path><path d="M 9090.17 3560.15 L 9113.25 3640.93 C 9116.44 3647.07 9109.07 3653.45 9098.52 3653.45 L 8170.67 3653.45 C 8162.57 3653.45 8155.69 3649.52 8155.20 3644.37 L 8147.10 3563.83 C 8147.10 3558.19 8153.48 3553.52 8162.57 3553.52 L 9075.68 3553.52 C 9078.46 3553.28 9081.26 3553.77 9083.80 3554.93 C 9086.33 3556.09 9088.53 3557.89 9090.17 3560.15 Z" fill="#ffffff" fill-opacity="0.3" fill-rule="nonzero" group-id="9" node-id="301" stroke="none" target-height="100.16992" target-width="969.34033" target-x="8147.1" target-y="3553.28"></path><path d="M 8967.65 3663.27 L 8992.20 3663.27 C 8996.87 3663.27 9000.55 3660.82 9000.31 3657.62 L 8988.77 3552.78 C 8988.77 3549.84 8984.35 3547.14 8979.44 3547.14 L 8954.88 3547.14 C 8949.97 3547.14 8946.29 3549.84 8946.78 3552.78 L 8958.08 3657.62 C 8958.57 3660.82 8961.76 3663.27 8967.65 3663.27 Z" fill="#263238" fill-rule="nonzero" node-id="304" stroke="none" target-height="116.13013" target-width="54.259766" target-x="8946.29" target-y="3547.14"></path><path d="M 8239.42 3663.27 L 8263.97 3663.27 C 8268.88 3663.27 8272.56 3660.82 8272.32 3657.62 L 8260.78 3552.78 C 8260.78 3549.84 8256.11 3547.14 8251.45 3547.14 L 8226.89 3547.14 C 8221.98 3547.14 8218.30 3549.84 8218.55 3552.78 L 8230.09 3657.62 C 8230.33 3660.82 8234.51 3663.27 8239.42 3663.27 Z" fill="#263238" fill-rule="nonzero" node-id="306" stroke="none" target-height="116.13013" target-width="54.259766" target-x="8218.3" target-y="3547.14"></path><path d="M 8603.53 3663.27 L 8628.09 3663.27 C 8633.00 3663.27 8636.68 3660.82 8636.43 3657.62 L 8624.89 3552.78 C 8624.89 3549.84 8620.47 3547.14 8615.56 3547.14 L 8591.01 3547.14 C 8586.10 3547.14 8582.42 3549.84 8582.91 3552.78 L 8593.47 3658.36 C 8593.47 3660.82 8598.62 3663.27 8603.53 3663.27 Z" fill="#263238" fill-rule="nonzero" node-id="308" stroke="none" target-height="116.13013" target-width="54.259766" target-x="8582.42" target-y="3547.14"></path><path d="M 8493.29 1511.22 L 8449.34 1502.87 C 8449.34 1502.87 8474.39 1534.30 8493.29 1511.22 Z" fill="#263238" fill-rule="nonzero" node-id="310" stroke="none" target-height="31.430054" target-width="43.950195" target-x="8449.34" target-y="1502.87"></path><path d="M 7680.60 4637.77 C 7264.62 4799.37 6810.06 4834.00 6374.41 4737.27 C 5938.75 4640.54 5541.56 4416.80 5233.07 4094.34 C 4924.57 3771.88 4718.62 3365.18 4641.25 2925.67 C 4563.89 2486.16 4618.59 2033.59 4798.44 1625.17 C 4978.29 1216.75 5275.21 870.83 5651.65 631.15 C 6028.09 391.48 6467.15 268.81 6913.31 278.67 C 7359.46 288.52 7792.68 430.45 8158.17 686.51 C 8523.67 942.57 8805.03 1301.26 8966.67 1717.22 C 9074.04 1993.43 9125.94 2288.08 9119.41 2584.35 C 9112.89 2880.62 9048.06 3172.70 8928.63 3443.91 C 8809.20 3715.12 8637.51 3960.14 8423.37 4164.99 C 8209.23 4369.83 7956.83 4530.49 7680.60 4637.77 Z" fill="#429cfd" fill-opacity="0.2" fill-rule="nonzero" group-id="10" node-id="314" stroke="none" target-height="4565.186" target-width="4562.0503" target-x="4563.89" target-y="268.814"></path><path d="M 7272.28 315.50 L 5502.52 4334.79 C 5475.27 4314.16 5448.26 4292.80 5421.74 4271.20 C 5250.69 4129.69 5101.73 3963.44 4979.79 3777.93 L 6508.45 306.17 C 6761.70 265.38 7020.10 268.54 7272.28 315.50 Z" fill="#ffffff" fill-opacity="0.1" fill-rule="nonzero" group-id="11" node-id="319" stroke="none" target-height="4069.409" target-width="2292.4897" target-x="4979.79" target-y="265.381"></path><path d="M 8530.37 1012.80 L 6866.43 4791.72 C 6520.81 4792.09 6179.73 4712.95 5869.58 4560.43 L 7686.49 433.85 C 8008.37 559.73 8297.07 757.80 8530.37 1012.80 Z" fill="#ffffff" fill-opacity="0.1" fill-rule="nonzero" group-id="12" node-id="324" stroke="none" target-height="4358.2437" target-width="2660.79" target-x="5869.58" target-y="433.846"></path><path d="M 5005.82 1014.52 C 5306.48 647.14 5709.33 377.16 6163.43 238.74 C 6617.53 100.31 7102.48 99.65 7556.95 236.83 C 8011.43 374.02 8415.02 642.89 8716.69 1009.45 C 9018.35 1376.00 9204.55 1823.78 9251.73 2296.16 C 9298.91 2768.54 9204.95 3244.30 8981.74 3663.28 C 8758.53 4082.26 8416.09 4425.64 7997.73 4650.00 C 7579.36 4874.37 7103.86 4969.63 6631.35 4923.75 C 6158.85 4877.87 5710.56 4692.90 5343.17 4392.24 C 4850.58 3989.03 4538.30 3406.67 4475.04 2773.24 C 4411.78 2139.81 4602.70 1507.19 5005.82 1014.52 Z M 8568.91 3930.41 C 8844.90 3593.05 9014.65 3181.43 9056.71 2747.59 C 9098.76 2313.76 9011.23 1877.20 8805.18 1493.11 C 8599.14 1109.02 8283.82 794.66 7899.11 589.77 C 7514.41 384.88 7077.58 298.66 6643.88 342.03 C 6210.17 385.39 5799.07 556.38 5462.54 833.39 C 5126.02 1110.39 4879.18 1480.96 4753.26 1898.24 C 4627.33 2315.52 4627.97 2760.77 4755.09 3177.69 C 4882.20 3594.60 5130.09 3964.47 5467.41 4240.51 C 5691.41 4423.82 5949.32 4561.20 6226.43 4644.83 C 6503.53 4728.45 6794.39 4756.67 7082.39 4727.87 C 7370.40 4699.07 7649.92 4613.83 7904.97 4477.00 C 8160.03 4340.17 8385.64 4154.43 8568.91 3930.41 Z" fill="#429cfd" fill-rule="nonzero" node-id="327" stroke="none" target-height="4869.983" target-width="4887.1304" target-x="4411.78" target-y="99.6469"></path><path d="M 8780.81 3922.06 C 9017.25 4063.24 9242.15 4218.41 9463.13 4378.49 C 9684.10 4538.58 9899.43 4705.29 10111.30 4876.42 C 10323.20 5047.56 10531.20 5223.60 10731.80 5408.48 C 10832.30 5500.80 10930.50 5595.57 11026.40 5692.80 C 11122.60 5791.01 11217.20 5889.23 11306.30 5995.78 C 11326.90 6020.46 11338.20 6051.53 11338.40 6083.67 C 11338.60 6115.80 11327.50 6146.99 11307.20 6171.87 C 11286.80 6196.74 11258.50 6213.75 11226.90 6219.98 C 11195.40 6226.20 11162.70 6221.24 11134.40 6205.96 C 11011.70 6139.66 10896.80 6066.50 10782.10 5991.61 C 10667.40 5916.72 10555.50 5838.65 10445.00 5758.36 C 10224.00 5598.28 10010.20 5429.60 9800.73 5255.52 C 9591.29 5081.44 9385.05 4903.43 9184.45 4718.30 C 8983.86 4533.18 8787.19 4343.63 8602.06 4139.84 C 8578.95 4114.64 8565.69 4081.94 8564.73 4047.75 C 8563.77 4013.57 8575.16 3980.18 8596.82 3953.71 C 8618.48 3927.25 8648.96 3909.48 8682.67 3903.66 C 8716.37 3897.85 8751.04 3904.38 8780.31 3922.06 L 8780.81 3922.06 Z" fill="#429cfd" fill-rule="nonzero" node-id="329" stroke="none" target-height="2328.35" target-width="2774.83" target-x="8563.77" target-y="3897.85"></path><path d="M 9044.99 3854.78 L 8807.81 3890.88 L 8977.47 4039.67 C 8977.47 4039.67 9111.53 3990.56 9124.79 3899.71 L 9044.99 3854.78 Z" fill="#ffc3bd" fill-rule="nonzero" node-id="331" stroke="none" target-height="184.8899" target-width="316.98047" target-x="8807.81" target-y="3854.78"></path><path d="M 8679.65 4027.14 L 8828.68 4144.01 L 9010.62 4025.18 L 8807.81 3891.37 L 8679.65 4027.14 Z" fill="#ffc3bd" fill-rule="nonzero" node-id="333" stroke="none" target-height="252.63965" target-width="330.96973" target-x="8679.65" target-y="3891.37"></path><path d="M 7558.32 4285.68 C 7579.99 4226.55 7619.05 4175.35 7670.37 4138.85 C 7721.69 4102.34 7782.86 4082.23 7845.84 4081.16 L 9811.29 4081.16 C 9845.25 4079.89 9879.08 4086.09 9910.38 4099.32 C 9941.69 4112.55 9969.71 4132.49 9992.47 4157.73 C 10015.20 4182.97 10032.20 4212.90 10042.10 4245.40 C 10052.00 4277.90 10054.70 4312.19 10049.90 4345.84 L 9542.19 8605.99 C 9531.41 8678.51 9495.19 8744.84 9439.99 8793.11 C 9384.80 8841.37 9314.24 8868.43 9240.92 8869.44 L 3004.52 8869.44 C 2970.67 8870.73 2936.96 8864.59 2905.74 8851.44 C 2874.52 8838.29 2846.57 8818.47 2823.84 8793.35 C 2801.11 8768.24 2784.16 8738.44 2774.19 8706.07 C 2764.22 8673.70 2761.46 8639.54 2766.11 8605.99 L 3191.86 5026.69 C 3202.63 4954.16 3238.86 4887.84 3294.05 4839.57 C 3349.25 4791.30 3419.81 4764.25 3493.12 4763.24 L 6886.81 4763.24 C 7033.86 4760.73 7176.71 4713.77 7296.57 4628.53 C 7416.43 4543.29 7507.68 4423.77 7558.32 4285.68 Z" fill="#429cfd" fill-rule="nonzero" node-id="335" stroke="none" target-height="4790.841" target-width="7293.24" target-x="2761.46" target-y="4079.89"></path><path d="M 2878.32 8673.26 L 9394.87 8673.26 L 9766.11 4288.63 L 3249.80 4288.63 L 2878.32 8673.26 Z" fill="#f0f0f0" fill-rule="nonzero" node-id="337" stroke="none" target-height="4384.63" target-width="6887.79" target-x="2878.32" target-y="4288.63"></path><path d="M 2878.32 8673.26 L 9394.87 8673.26 L 9663.48 4288.63 L 3249.80 4288.63 L 2878.32 8673.26 Z" fill="#e0e0e0" fill-rule="nonzero" node-id="339" stroke="none" target-height="4384.63" target-width="6785.16" target-x="2878.32" target-y="4288.63"></path><path d="M 2878.32 8673.26 L 9394.87 8673.26 L 9618.79 4149.42 L 3102.49 4149.42 L 2878.32 8673.26 Z" fill="#f0f0f0" fill-rule="nonzero" node-id="341" stroke="none" target-height="4523.84" target-width="6740.4697" target-x="2878.32" target-y="4149.42"></path><path d="M 2878.32 8673.26 L 9394.87 8673.26 L 9483.51 4149.42 L 3102.49 4149.42 L 2878.32 8673.26 Z" fill="#e0e0e0" fill-rule="nonzero" node-id="343" stroke="none" target-height="4523.84" target-width="6605.1895" target-x="2878.32" target-y="4149.42"></path><path d="M 2878.32 8673.26 L 9394.87 8673.26 L 9433.66 4026.65 L 2917.36 4026.65 L 2878.32 8673.26 Z" fill="#f0f0f0" fill-rule="nonzero" node-id="345" stroke="none" target-height="4646.61" target-width="6555.34" target-x="2878.32" target-y="4026.65"></path><path d="M 2878.32 8673.26 L 9394.87 8673.26 L 9261.06 4114.55 L 2786.74 4114.55 L 2878.32 8673.26 Z" fill="#e0e0e0" fill-rule="nonzero" node-id="347" stroke="none" target-height="4558.71" target-width="6608.13" target-x="2786.74" target-y="4114.55"></path><path d="M 2878.32 8673.26 L 9394.87 8673.26 L 9201.40 4149.42 L 2685.09 4149.42 L 2878.32 8673.26 Z" fill="#f0f0f0" fill-rule="nonzero" node-id="349" stroke="none" target-height="4523.84" target-width="6709.7803" target-x="2685.09" target-y="4149.42"></path><path d="M 2878.32 8673.26 L 9394.87 8673.26 L 9086.73 4217.67 L 2570.43 4217.67 L 2878.32 8673.26 Z" fill="#e0e0e0" fill-rule="nonzero" node-id="351" stroke="none" target-height="4455.59" target-width="6824.4404" target-x="2570.43" target-y="4217.67"></path><path d="M 2878.32 8673.26 L 9394.87 8673.26 L 9037.63 4255.73 L 2521.32 4255.73 L 2878.32 8673.26 Z" fill="#f0f0f0" fill-rule="nonzero" node-id="353" stroke="none" target-height="4417.53" target-width="6873.55" target-x="2521.32" target-y="4255.73"></path><path d="M 6141.63 4562.39 C 6141.99 4533.91 6148.09 4505.78 6159.54 4479.70 C 6171.00 4453.61 6187.59 4430.10 6208.32 4410.56 C 6229.06 4391.02 6253.51 4375.85 6280.22 4365.95 C 6306.94 4356.06 6335.37 4351.64 6363.83 4352.96 L 8329.28 4352.96 C 8405.38 4355.88 8478.35 4383.99 8536.74 4432.87 C 8595.13 4481.75 8635.64 4548.64 8651.90 4623.04 L 9428.51 8600.59 C 9457.48 8749.62 9360.25 8870.67 9211.22 8870.67 L 2974.81 8870.67 C 2825.53 8870.67 2680.18 8749.62 2651.94 8600.59 L 2011.36 5321.56 C 1982.39 5172.53 2079.62 5051.48 2228.65 5051.48 L 5622.58 5051.48 C 5917.22 5051.48 6131.56 4848.68 6141.63 4562.39 Z" fill="#429cfd" fill-rule="nonzero" node-id="355" stroke="none" target-height="4519.03" target-width="7475.0903" target-x="1982.39" target-y="4351.64"></path><path d="M 6141.63 4562.39 C 6141.99 4533.91 6148.09 4505.78 6159.54 4479.70 C 6171.00 4453.61 6187.59 4430.10 6208.32 4410.56 C 6229.06 4391.02 6253.51 4375.85 6280.22 4365.95 C 6306.94 4356.06 6335.37 4351.64 6363.83 4352.96 L 8329.28 4352.96 C 8405.38 4355.88 8478.35 4383.99 8536.74 4432.87 C 8595.13 4481.75 8635.64 4548.64 8651.90 4623.04 L 9428.51 8600.59 C 9457.48 8749.62 9360.25 8870.67 9211.22 8870.67 L 2974.81 8870.67 C 2825.53 8870.67 2680.18 8749.62 2651.94 8600.59 L 2011.36 5321.56 C 1982.39 5172.53 2079.62 5051.48 2228.65 5051.48 L 5622.58 5051.48 C 5917.22 5051.48 6131.56 4848.68 6141.63 4562.39 Z" fill="#000000" fill-opacity="0.2" fill-rule="nonzero" group-id="13" node-id="359" stroke="none" target-height="4519.03" target-width="7475.0903" target-x="1982.39" target-y="4351.64"></path></svg>